Rosario-Italic.ufo
<glyph name="quotedbl" format="2">
  <advance width="300"/>
  <unicode hex="0022"/>
  <note>
quotedbl
</note>
  <outline>
    <contour>
      <point x="107" y="436" type="line"/>
      <point x="150" y="548" type="line"/>
      <point x="175" y="724" type="line"/>
      <point x="95" y="724" type="line"/>
      <point x="70" y="550" type="line"/>
      <point x="79" y="436" type="line"/>
    </contour>
    <contour>
      <point x="246" y="436" type="line"/>
      <point x="289" y="548" type="line"/>
      <point x="314" y="724" type="line"/>
      <point x="234" y="724" type="line"/>
      <point x="209" y="550" type="line"/>
      <point x="218" y="436" type="line"/>
    </contour>
  </outline>
</glyph>
<glyph name="numbersign" format="2">
  <advance width="640"/>
  <unicode hex="0023"/>
  <note>
numbersign
</note>
  <outline>
    <contour>
      <point x="435" y="296" type="line"/>
      <point x="453" y="426" type="line"/>
      <point x="584" y="426" type="line"/>
      <point x="584" y="483" type="line"/>
      <point x="460" y="483" type="line"/>
      <point x="491" y="716" type="line"/>
      <point x="431" y="716" type="line"/>
      <point x="400" y="483" type="line"/>
      <point x="278" y="483" type="line"/>
      <point x="310" y="716" type="line"/>
      <point x="248" y="716" type="line"/>
      <point x="217" y="483" type="line"/>
      <point x="83" y="483" type="line"/>
      <point x="83" y="426" type="line"/>
      <point x="209" y="426" type="line"/>
      <point x="192" y="296" type="line"/>
      <point x="57" y="296" type="line"/>
      <point x="57" y="241" type="line"/>
      <point x="184" y="241" type="line"/>
      <point x="151" y="0" type="line"/>
      <point x="211" y="0" type="line"/>
      <point x="245" y="241" type="line"/>
      <point x="366" y="241" type="line"/>
      <point x="333" y="0" type="line"/>
      <point x="394" y="0" type="line"/>
      <point x="428" y="241" type="line"/>
      <point x="559" y="241" type="line"/>
      <point x="559" y="296" type="line"/>
    </contour>
    <contour>
      <point x="253" y="296" type="line"/>
      <point x="270" y="426" type="line"/>
      <point x="392" y="426" type="line"/>
      <point x="374" y="296" type="line"/>
    </contour>
  </outline>
</glyph>
<glyph name="ampersand" format="2">
  <advance width="636"/>
  <unicode hex="0026"/>
  <note>
ampersand
</note>
  <outline>
    <contour>
      <point x="231" y="418" type="line"/>
      <point x="86" y="378"/>
      <point x="8" y="265"/>
      <point x="8" y="165" type="curve" smooth="yes"/>
      <point x="8" y="72"/>
      <point x="75" y="-9"/>
      <point x="218" y="-9" type="curve" smooth="yes"/>
      <point x="405" y="-9"/>
      <point x="498" y="112"/>
      <point x="498" y="232" type="curve" smooth="yes"/>
      <point x="498" y="289"/>
      <point x="477" y="346"/>
      <point x="434" y="389" type="curve"/>
      <point x="375" y="350" type="line"/>
      <point x="408" y="306"/>
      <point x="425" y="257"/>
      <point x="425" y="211" type="curve" smooth="yes"/>
      <point x="425" y="126"/>
      <point x="366" y="55"/>
      <point x="242" y="55" type="curve" smooth="yes"/>
      <point x="147" y="55"/>
      <point x="100" y="120"/>
      <point x="100" y="190" type="curve" smooth="yes"/>
      <point x="100" y="263"/>
      <point x="151" y="341"/>
      <point x="247" y="357" type="curve"/>
    </contour>
    <contour>
      <point x="387" y="735" type="curve" smooth="yes"/>
      <point x="280" y="735"/>
      <point x="183" y="637"/>
      <point x="183" y="457" type="curve" smooth="yes"/>
      <point x="183" y="278"/>
      <point x="247" y="129"/>
      <point x="357" y="52" type="curve" smooth="yes"/>
      <point x="412" y="14"/>
      <point x="495" y="-9"/>
      <point x="559" y="-9" type="curve" smooth="yes"/>
      <point x="581" y="-9"/>
      <point x="605" y="-7"/>
      <point x="630" y="-2" type="curve"/>
      <point x="621" y="65" type="line"/>
      <point x="604" y="60"/>
      <point x="587" y="58"/>
      <point x="569" y="58" type="curve" smooth="yes"/>
      <point x="518" y="58"/>
      <point x="464" y="76"/>
      <point x="425" y="104" type="curve" smooth="yes"/>
      <point x="331" y="167"/>
      <point x="275" y="301"/>
      <point x="275" y="453" type="curve" smooth="yes"/>
      <point x="275" y="580"/>
      <point x="321" y="671"/>
      <point x="388" y="671" type="curve" smooth="yes"/>
      <point x="415" y="671"/>
      <point x="443" y="656"/>
      <point x="471" y="627" type="curve"/>
      <point x="522" y="686" type="line"/>
      <point x="481" y="720"/>
      <point x="434" y="735"/>
    </contour>
    <contour>
      <point x="384" y="418" type="line"/>
      <point x="375" y="350" type="line"/>
      <point x="594" y="350" type="line"/>
      <point x="612" y="418" type="line"/>
    </contour>
  </outline>
</glyph>
<glyph name="asterisk" format="2">
  <advance width="470"/>
  <unicode hex="002A"/>
  <note>
asterisk
</note>
  <outline>
    <contour>
      <point x="261" y="731" type="line"/>
      <point x="261" y="591" type="line"/>
      <point x="302" y="591" type="line"/>
      <point x="339" y="731" type="line"/>
    </contour>
    <contour>
      <point x="315" y="583" type="line"/>
      <point x="322" y="541" type="line"/>
      <point x="463" y="569" type="line"/>
      <point x="445" y="647" type="line"/>
    </contour>
    <contour>
      <point x="129" y="643" type="line"/>
      <point x="98" y="567" type="line"/>
      <point x="231" y="546" type="line"/>
      <point x="249" y="582" type="line"/>
    </contour>
    <contour>
      <point x="232" y="530" type="line"/>
      <point x="123" y="426" type="line"/>
      <point x="178" y="381" type="line"/>
      <point x="263" y="503" type="line"/>
    </contour>
    <contour>
      <point x="278" y="503" type="line"/>
      <point x="328" y="379" type="line"/>
      <point x="398" y="427" type="line"/>
      <point x="314" y="526" type="line"/>
    </contour>
  </outline>
</glyph>
<glyph name="period" format="2">
  <advance width="247"/>
  <unicode hex="002E"/>
  <note>
period
</note>
  <outline>
    <contour>
      <point x="168" y="63" type="curve" smooth="yes"/>
      <point x="168" y="96"/>
      <point x="143" y="120"/>
      <point x="109" y="120" type="curve" smooth="yes"/>
      <point x="70" y="120"/>
      <point x="34" y="85"/>
      <point x="34" y="45" type="curve" smooth="yes"/>
      <point x="34" y="12"/>
      <point x="58" y="-13"/>
      <point x="92" y="-13" type="curve" smooth="yes"/>
      <point x="131" y="-13"/>
      <point x="168" y="22"/>
    </contour>
  </outline>
</glyph>
<glyph name="slash" format="2">
  <advance width="293"/>
  <unicode hex="002F"/>
  <note>
slash
</note>
  <outline>
    <contour>
      <point x="-14" y="-8" type="line"/>
      <point x="54" y="-8" type="line"/>
      <point x="307" y="724" type="line"/>
      <point x="241" y="724" type="line"/>
    </contour>
  </outline>
</glyph>
<glyph name="one" format="2">
  <advance width="376"/>
  <unicode hex="0031"/>
  <note>
one
</note>
  <outline>
    <contour>
      <point x="284" y="493" type="line"/>
      <point x="236" y="493" type="line"/>
      <point x="76" y="417" type="line"/>
      <point x="82" y="370" type="line"/>
      <point x="192" y="401" type="line"/>
      <point x="147" y="67" type="line"/>
      <point x="36" y="67" type="line"/>
      <point x="28" y="0" type="line"/>
      <point x="325" y="0" type="line"/>
      <point x="334" y="67" type="line"/>
      <point x="227" y="67" type="line"/>
    </contour>
  </outline>
</glyph>
<glyph name="three" format="2">
  <advance width="380"/>
  <unicode hex="0033"/>
  <note>
three
</note>
  <outline>
    <contour>
      <point x="240" y="510" type="curve" smooth="yes"/>
      <point x="177" y="510"/>
      <point x="101" y="485"/>
      <point x="40" y="439" type="curve"/>
      <point x="76" y="382" type="line"/>
      <point x="112" y="419"/>
      <point x="174" y="446"/>
      <point x="219" y="446" type="curve" smooth="yes"/>
      <point x="254" y="446"/>
      <point x="273" y="424"/>
      <point x="273" y="391" type="curve" smooth="yes"/>
      <point x="273" y="302"/>
      <point x="145" y="222"/>
      <point x="62" y="185" type="curve"/>
      <point x="78" y="137" type="line"/>
      <point x="101" y="144"/>
      <point x="123" y="148"/>
      <point x="142" y="148" type="curve" smooth="yes"/>
      <point x="192" y="148"/>
      <point x="228" y="123"/>
      <point x="228" y="66" type="curve" smooth="yes"/>
      <point x="228" y="-83"/>
      <point x="42" y="-144"/>
      <point x="-120" y="-152" type="curve"/>
      <point x="-122" y="-196" type="line"/>
      <point x="72" y="-202"/>
      <point x="325" y="-122"/>
      <point x="325" y="75" type="curve" smooth="yes"/>
      <point x="325" y="158"/>
      <point x="260" y="194"/>
      <point x="195" y="197" type="curve"/>
      <point x="286" y="243"/>
      <point x="364" y="326"/>
      <point x="364" y="410" type="curve" smooth="yes"/>
      <point x="364" y="479"/>
      <point x="314" y="510"/>
    </contour>
  </outline>
</glyph>
<glyph name="four" format="2">
  <advance width="477"/>
  <unicode hex="0034"/>
  <note>
four
</note>
  <outline>
    <contour>
      <point x="311" y="498" type="line"/>
      <point x="-10" y="40" type="line"/>
      <point x="-16" y="0" type="line"/>
      <point x="256" y="0" type="line"/>
      <point x="230" y="-185" type="line"/>
      <point x="313" y="-185" type="line"/>
      <point x="339" y="0" type="line"/>
      <point x="422" y="0" type="line"/>
      <point x="450" y="69" type="line"/>
      <point x="349" y="69" type="line"/>
      <point x="409" y="498" type="line"/>
    </contour>
    <contour>
      <point x="312" y="399" type="line"/>
      <point x="266" y="69" type="line"/>
      <point x="86" y="69" type="line"/>
    </contour>
  </outline>
</glyph>
<glyph name="five" format="2">
  <advance width="364"/>
  <unicode hex="0035"/>
  <note>
five
</note>
  <outline>
    <contour>
      <point x="165" y="497" type="line"/>
      <point x="38" y="273" type="line"/>
      <point x="129" y="238"/>
      <point x="194" y="175"/>
      <point x="194" y="93" type="curve" smooth="yes"/>
      <point x="194" y="-48"/>
      <point x="91" y="-127"/>
      <point x="-62" y="-165" type="curve"/>
      <point x="-56" y="-209" type="line"/>
      <point x="126" y="-182"/>
      <point x="291" y="-67"/>
      <point x="291" y="105" type="curve" smooth="yes"/>
      <point x="291" y="199"/>
      <point x="228" y="263"/>
      <point x="130" y="306" type="curve"/>
      <point x="188" y="412" type="line"/>
      <point x="375" y="412" type="line"/>
      <point x="411" y="497" type="line"/>
    </contour>
  </outline>
</glyph>
<glyph name="six" format="2">
  <advance width="518"/>
  <unicode hex="0036"/>
  <note>
six
</note>
  <outline>
    <contour>
      <point x="512" y="732" type="line"/>
      <point x="268" y="654"/>
      <point x="39" y="428"/>
      <point x="39" y="185" type="curve" smooth="yes"/>
      <point x="39" y="50"/>
      <point x="124" y="-13"/>
      <point x="223" y="-13" type="curve" smooth="yes"/>
      <point x="365" y="-13"/>
      <point x="481" y="107"/>
      <point x="481" y="245" type="curve" smooth="yes"/>
      <point x="481" y="331"/>
      <point x="429" y="405"/>
      <point x="315" y="405" type="curve" smooth="yes"/>
      <point x="264" y="405"/>
      <point x="205" y="386"/>
      <point x="155" y="346" type="curve"/>
      <point x="134" y="282" type="line"/>
      <point x="186" y="319"/>
      <point x="239" y="337"/>
      <point x="283" y="337" type="curve" smooth="yes"/>
      <point x="352" y="337"/>
      <point x="382" y="285"/>
      <point x="382" y="226" type="curve" smooth="yes"/>
      <point x="382" y="145"/>
      <point x="328" y="50"/>
      <point x="240" y="50" type="curve" smooth="yes"/>
      <point x="173" y="50"/>
      <point x="136" y="110"/>
      <point x="136" y="194" type="curve" smooth="yes"/>
      <point x="136" y="397"/>
      <point x="309" y="600"/>
      <point x="527" y="685" type="curve"/>
    </contour>
  </outline>
</glyph>
<glyph name="semicolon" format="2">
  <advance width="251"/>
  <unicode hex="003B"/>
  <note>
semicolon
</note>
  <outline>
    <contour>
      <point x="215" y="371" type="curve" smooth="yes"/>
      <point x="215" y="404"/>
      <point x="190" y="428"/>
      <point x="156" y="428" type="curve" smooth="yes"/>
      <point x="117" y="428"/>
      <point x="81" y="393"/>
      <point x="81" y="353" type="curve" smooth="yes"/>
      <point x="81" y="320"/>
      <point x="105" y="295"/>
      <point x="139" y="295" type="curve" smooth="yes"/>
      <point x="178" y="295"/>
      <point x="215" y="330"/>
    </contour>
    <contour>
      <point x="105" y="120" type="curve" smooth="yes"/>
      <point x="69" y="120"/>
      <point x="36" y="97"/>
      <point x="36" y="54" type="curve" smooth="yes"/>
      <point x="36" y="16"/>
      <point x="76" y="1"/>
      <point x="76" y="-18" type="curve" smooth="yes"/>
      <point x="76" y="-37"/>
      <point x="59" y="-58"/>
      <point x="18" y="-92" type="curve"/>
      <point x="48" y="-125" type="line"/>
      <point x="107" y="-86"/>
      <point x="171" y="-22"/>
      <point x="171" y="50" type="curve" smooth="yes"/>
      <point x="171" y="88"/>
      <point x="148" y="120"/>
    </contour>
  </outline>
</glyph>
<glyph name="question" format="2">
  <advance width="427"/>
  <unicode hex="003F"/>
  <note>
question
</note>
  <outline>
    <contour>
      <point x="277" y="724" type="curve" smooth="yes"/>
      <point x="236" y="724"/>
      <point x="192" y="712"/>
      <point x="153" y="687" type="curve"/>
      <point x="170" y="620" type="line"/>
      <point x="198" y="641"/>
      <point x="229" y="652"/>
      <point x="260" y="652" type="curve" smooth="yes"/>
      <point x="303" y="652"/>
      <point x="337" y="630"/>
      <point x="337" y="574" type="curve" smooth="yes"/>
      <point x="337" y="514"/>
      <point x="304" y="488"/>
      <point x="255" y="460" type="curve" smooth="yes"/>
      <point x="195" y="426"/>
      <point x="125" y="388"/>
      <point x="125" y="304" type="curve" smooth="yes"/>
      <point x="125" y="258"/>
      <point x="162" y="206"/>
      <point x="239" y="206" type="curve"/>
      <point x="262" y="268" type="line"/>
      <point x="217" y="268"/>
      <point x="203" y="293"/>
      <point x="203" y="313" type="curve" smooth="yes"/>
      <point x="203" y="357"/>
      <point x="247" y="380"/>
      <point x="301" y="409" type="curve" smooth="yes"/>
      <point x="360" y="441"/>
      <point x="427" y="489"/>
      <point x="427" y="589" type="curve" smooth="yes"/>
      <point x="427" y="678"/>
      <point x="357" y="724"/>
    </contour>
    <contour>
      <point x="174" y="119" type="curve" smooth="yes"/>
      <point x="134" y="119"/>
      <point x="98" y="85"/>
      <point x="98" y="44" type="curve" smooth="yes"/>
      <point x="98" y="12"/>
      <point x="122" y="-13"/>
      <point x="155" y="-13" type="curve" smooth="yes"/>
      <point x="194" y="-13"/>
      <point x="232" y="23"/>
      <point x="232" y="63" type="curve" smooth="yes"/>
      <point x="232" y="94"/>
      <point x="207" y="119"/>
    </contour>
  </outline>
</glyph>
<glyph name="at" format="2">
  <advance width="1018"/>
  <unicode hex="0040"/>
  <note>
at
</note>
  <outline>
    <contour>
      <point x="552" y="728" type="curve" smooth="yes"/>
      <point x="219" y="728"/>
      <point x="50" y="459"/>
      <point x="50" y="204" type="curve" smooth="yes"/>
      <point x="50" y="-24"/>
      <point x="185" y="-240"/>
      <point x="459" y="-240" type="curve" smooth="yes"/>
      <point x="500" y="-240"/>
      <point x="540" y="-234"/>
      <point x="579" y="-224" type="curve"/>
      <point x="563" y="-171" type="line"/>
      <point x="529" y="-180"/>
      <point x="494" y="-185"/>
      <point x="459" y="-185" type="curve" smooth="yes"/>
      <point x="228" y="-185"/>
      <point x="115" y="2"/>
      <point x="115" y="201" type="curve" smooth="yes"/>
      <point x="115" y="429"/>
      <point x="263" y="673"/>
      <point x="552" y="673" type="curve" smooth="yes"/>
      <point x="749" y="673"/>
      <point x="911" y="548"/>
      <point x="911" y="331" type="curve" smooth="yes"/>
      <point x="911" y="193"/>
      <point x="844" y="50"/>
      <point x="733" y="50" type="curve" smooth="yes"/>
      <point x="685" y="50"/>
      <point x="668" y="67"/>
      <point x="668" y="94" type="curve" smooth="yes"/>
      <point x="668" y="121"/>
      <point x="675" y="164"/>
      <point x="726" y="495" type="curve"/>
      <point x="682" y="495" type="line"/>
      <point x="660" y="459" type="line"/>
      <point x="626" y="492"/>
      <point x="587" y="503"/>
      <point x="550" y="503" type="curve" smooth="yes"/>
      <point x="380" y="503"/>
      <point x="299" y="342"/>
      <point x="299" y="193" type="curve" smooth="yes"/>
      <point x="299" y="81"/>
      <point x="343" y="-13"/>
      <point x="451" y="-13" type="curve" smooth="yes"/>
      <point x="505" y="-13"/>
      <point x="563" y="19"/>
      <point x="594" y="74" type="curve"/>
      <point x="598" y="74" type="line"/>
      <point x="614" y="7"/>
      <point x="668" y="-6"/>
      <point x="730" y="-6" type="curve" smooth="yes"/>
      <point x="883" y="-6"/>
      <point x="976" y="167"/>
      <point x="976" y="331" type="curve" smooth="yes"/>
      <point x="976" y="583"/>
      <point x="782" y="728"/>
    </contour>
    <contour>
      <point x="552" y="441" type="curve" smooth="yes"/>
      <point x="581" y="441"/>
      <point x="607" y="433"/>
      <point x="635" y="416" type="curve"/>
      <point x="620" y="307" type="line" smooth="yes"/>
      <point x="603" y="177"/>
      <point x="555" y="51"/>
      <point x="467" y="51" type="curve" smooth="yes"/>
      <point x="407" y="51"/>
      <point x="382" y="116"/>
      <point x="382" y="194" type="curve" smooth="yes"/>
      <point x="382" y="309"/>
      <point x="428" y="441"/>
    </contour>
  </outline>
</glyph>
<glyph name="A" format="2">
  <advance width="605"/>
  <unicode hex="0041"/>
  <note>
A
</note>
  <anchor x="271" y="0" name="bottom"/>
  <anchor x="490" y="0" name="ogonek"/>
  <anchor x="374" y="724" name="top"/>
  <outline>
    <contour>
      <point x="419" y="724" type="line"/>
      <point x="332" y="724" type="line"/>
      <point x="-6" y="0" type="line"/>
      <point x="75" y="0" type="line"/>
      <point x="190" y="249" type="line"/>
      <point x="417" y="249" type="line"/>
      <point x="464" y="0" type="line"/>
      <point x="561" y="0" type="line"/>
    </contour>
    <contour>
      <point x="351" y="602" type="line"/>
      <point x="404" y="316" type="line"/>
      <point x="221" y="316" type="line"/>
    </contour>
  </outline>
</glyph>
<glyph name="C" format="2">
  <advance width="585"/>
  <unicode hex="0043"/>
  <note>
C
</note>
  <anchor x="296" y="0" name="bottom"/>
  <anchor x="396" y="724" name="top"/>
  <outline>
    <contour>
      <point x="317" y="-10" type="curve" smooth="yes"/>
      <point x="396" y="-10"/>
      <point x="478" y="14"/>
      <point x="541" y="59" type="curve"/>
      <point x="516" y="114" type="line"/>
      <point x="456" y="80"/>
      <point x="393" y="65"/>
      <point x="333" y="65" type="curve" smooth="yes"/>
      <point x="202" y="65"/>
      <point x="142" y="178"/>
      <point x="142" y="307" type="curve" smooth="yes"/>
      <point x="142" y="473"/>
      <point x="242" y="665"/>
      <point x="413" y="665" type="curve" smooth="yes"/>
      <point x="468" y="665"/>
      <point x="524" y="645"/>
      <point x="564" y="599" type="curve"/>
      <point x="620" y="657" type="line"/>
      <point x="571" y="714"/>
      <point x="491" y="734"/>
      <point x="423" y="734" type="curve" smooth="yes"/>
      <point x="179" y="734"/>
      <point x="45" y="505"/>
      <point x="45" y="301" type="curve" smooth="yes"/>
      <point x="45" y="137"/>
      <point x="132" y="-10"/>
    </contour>
  </outline>
</glyph>
<glyph name="G" format="2">
  <advance width="667"/>
  <unicode hex="0047"/>
  <note>
G
</note>
  <anchor x="297" y="0" name="bottom"/>
  <anchor x="401" y="724" name="top"/>
  <outline>
    <contour>
      <point x="422" y="734" type="curve" smooth="yes"/>
      <point x="172" y="734"/>
      <point x="45" y="502"/>
      <point x="45" y="281" type="curve" smooth="yes"/>
      <point x="45" y="122"/>
      <point x="122" y="-10"/>
      <point x="299" y="-10" type="curve" smooth="yes"/>
      <point x="380" y="-10"/>
      <point x="449" y="18"/>
      <point x="509" y="75" type="curve"/>
      <point x="528" y="0" type="line"/>
      <point x="576" y="0" type="line"/>
      <point x="587" y="127"/>
      <point x="600" y="246"/>
      <point x="619" y="373" type="curve"/>
      <point x="359" y="373" type="line"/>
      <point x="350" y="305" type="line"/>
      <point x="519" y="305" type="line"/>
      <point x="511" y="240" type="line" smooth="yes"/>
      <point x="498" y="142"/>
      <point x="423" y="65"/>
      <point x="323" y="65" type="curve" smooth="yes"/>
      <point x="187" y="65"/>
      <point x="140" y="171"/>
      <point x="140" y="292" type="curve" smooth="yes"/>
      <point x="140" y="459"/>
      <point x="220" y="665"/>
      <point x="413" y="665" type="curve" smooth="yes"/>
      <point x="486" y="665"/>
      <point x="533" y="644"/>
      <point x="583" y="592" type="curve"/>
      <point x="640" y="651" type="line"/>
      <point x="590" y="712"/>
      <point x="490" y="734"/>
    </contour>
  </outline>
</glyph>
<glyph name="J" format="2">
  <advance width="253"/>
  <unicode hex="004A"/>
  <note>
J
</note>
  <anchor x="191" y="724" name="top"/>
  <outline>
    <contour>
      <point x="139" y="724" type="line"/>
      <point x="139" y="658" type="line"/>
      <point x="56" y="46" type="line" smooth="yes"/>
      <point x="45" y="-38"/>
      <point x="20" y="-155"/>
      <point x="-87" y="-170" type="curve"/>
      <point x="-79" y="-222" type="line"/>
      <point x="85" y="-207"/>
      <point x="125" y="-91"/>
      <point x="144" y="48" type="curve" smooth="yes"/>
      <point x="238" y="724" type="line"/>
    </contour>
  </outline>
</glyph>
<glyph name="M" format="2">
  <advance width="789"/>
  <unicode hex="004D"/>
  <note>
M
</note>
  <outline>
    <contour>
      <point x="256" y="724" type="line"/>
      <point x="132" y="724" type="line"/>
      <point x="132" y="660" type="line"/>
      <point x="44" y="0" type="line"/>
      <point x="117" y="0" type="line"/>
      <point x="185" y="499" type="line" smooth="yes"/>
      <point x="189" y="529"/>
      <point x="193" y="560"/>
      <point x="197" y="600" type="curve"/>
      <point x="204" y="560"/>
      <point x="210" y="529"/>
      <point x="217" y="499" type="curve" smooth="yes"/>
      <point x="325" y="-2" type="line"/>
      <point x="378" y="-2" type="line"/>
      <point x="621" y="501" type="line" smooth="yes"/>
      <point x="635" y="530"/>
      <point x="650" y="560"/>
      <point x="664" y="599" type="curve"/>
      <point x="660" y="560"/>
      <point x="656" y="530"/>
      <point x="652" y="501" type="curve" smooth="yes"/>
      <point x="585" y="0" type="line"/>
      <point x="675" y="0" type="line"/>
      <point x="773" y="724" type="line"/>
      <point x="655" y="724" type="line"/>
      <point x="416" y="233" type="line" smooth="yes"/>
      <point x="404" y="209"/>
      <point x="392" y="185"/>
      <point x="379" y="151" type="curve"/>
      <point x="375" y="185"/>
      <point x="370" y="208"/>
      <point x="365" y="232" type="curve" smooth="yes"/>
    </contour>
  </outline>
</glyph>
<glyph name="N" format="2">
  <advance width="674"/>
  <unicode hex="004E"/>
  <note>
N
</note>
  <anchor x="301" y="0" name="bottom"/>
  <anchor x="397" y="724" name="top"/>
  <outline>
    <contour>
      <point x="248" y="724" type="line"/>
      <point x="134" y="724" type="line"/>
      <point x="134" y="659" type="line"/>
      <point x="45" y="0" type="line"/>
      <point x="119" y="0" type="line"/>
      <point x="192" y="545" type="line" smooth="yes"/>
      <point x="195" y="567"/>
      <point x="198" y="590"/>
      <point x="201" y="622" type="curve"/>
      <point x="211" y="591"/>
      <point x="221" y="571"/>
      <point x="231" y="550" type="curve" smooth="yes"/>
      <point x="502" y="-5" type="line"/>
      <point x="559" y="-5" type="line"/>
      <point x="657" y="724" type="line"/>
      <point x="584" y="724" type="line"/>
      <point x="519" y="249" type="line" smooth="yes"/>
      <point x="516" y="227"/>
      <point x="513" y="205"/>
      <point x="510" y="173" type="curve"/>
      <point x="499" y="206"/>
      <point x="488" y="229"/>
      <point x="477" y="252" type="curve" smooth="yes"/>
    </contour>
  </outline>
</glyph>
<glyph name="O" format="2">
  <advance width="708"/>
  <unicode hex="004F"/>
  <note>
O
</note>
  <anchor x="323" y="0" name="bottom"/>
  <anchor x="360" y="363" name="center"/>
  <anchor x="369" y="0" name="ogonek"/>
  <anchor x="411" y="724" name="top"/>
  <anchor x="443" y="724" name="topright"/>
  <outline>
    <contour>
      <point x="304" y="-10" type="curve" smooth="yes"/>
      <point x="546" y="-10"/>
      <point x="668" y="216"/>
      <point x="668" y="438" type="curve" smooth="yes"/>
      <point x="668" y="603"/>
      <point x="590" y="734"/>
      <point x="407" y="734" type="curve" smooth="yes"/>
      <point x="165" y="734"/>
      <point x="45" y="502"/>
      <point x="45" y="289" type="curve" smooth="yes"/>
      <point x="45" y="127"/>
      <point x="123" y="-10"/>
    </contour>
    <contour>
      <point x="317" y="59" type="curve" smooth="yes"/>
      <point x="182" y="59"/>
      <point x="140" y="174"/>
      <point x="140" y="291" type="curve" smooth="yes"/>
      <point x="140" y="449"/>
      <point x="212" y="665"/>
      <point x="398" y="665" type="curve" smooth="yes"/>
      <point x="532" y="665"/>
      <point x="574" y="551"/>
      <point x="574" y="433" type="curve" smooth="yes"/>
      <point x="574" y="275"/>
      <point x="504" y="59"/>
    </contour>
  </outline>
</glyph>
<glyph name="Q" format="2">
  <advance width="708"/>
  <unicode hex="0051"/>
  <note>
Q
</note>
  <outline>
    <contour>
      <point x="1084" y="-175" type="curve"/>
      <point x="1069" y="-128" type="line"/>
      <point x="1013" y="-144"/>
      <point x="953" y="-158"/>
      <point x="899" y="-158" type="curve" smooth="yes"/>
      <point x="776" y="-158"/>
      <point x="602" y="-71"/>
      <point x="493" y="-10" type="curve" smooth="yes"/>
      <point x="477" y="0"/>
      <point x="455" y="9"/>
      <point x="437" y="16" type="curve"/>
      <point x="591" y="82"/>
      <point x="668" y="261"/>
      <point x="668" y="438" type="curve" smooth="yes"/>
      <point x="668" y="603"/>
      <point x="590" y="734"/>
      <point x="407" y="734" type="curve" smooth="yes"/>
      <point x="165" y="734"/>
      <point x="45" y="502"/>
      <point x="45" y="289" type="curve" smooth="yes"/>
      <point x="45" y="127"/>
      <point x="116" y="0"/>
      <point x="304" y="-15" type="curve" smooth="yes"/>
      <point x="328" y="-17"/>
      <point x="361" y="-24"/>
      <point x="393" y="-38" type="curve" smooth="yes"/>
      <point x="527" y="-97"/>
      <point x="696" y="-222"/>
      <point x="857" y="-222" type="curve" smooth="yes"/>
      <point x="942" y="-222"/>
      <point x="1002" y="-203"/>
    </contour>
    <contour>
      <point x="317" y="59" type="curve" smooth="yes"/>
      <point x="182" y="59"/>
      <point x="140" y="174"/>
      <point x="140" y="291" type="curve" smooth="yes"/>
      <point x="140" y="449"/>
      <point x="212" y="665"/>
      <point x="398" y="665" type="curve" smooth="yes"/>
      <point x="532" y="665"/>
      <point x="574" y="551"/>
      <point x="574" y="433" type="curve" smooth="yes"/>
      <point x="574" y="275"/>
      <point x="504" y="59"/>
    </contour>
  </outline>
</glyph>
<glyph name="R" format="2">
  <advance width="568"/>
  <unicode hex="0052"/>
  <note>
R
</note>
  <anchor x="259" y="0" name="bottom"/>
  <anchor x="322" y="724" name="top"/>
  <outline>
    <contour>
      <point x="135" y="0" type="line"/>
      <point x="223" y="655" type="line"/>
      <point x="331" y="655" type="line" smooth="yes"/>
      <point x="407" y="655"/>
      <point x="456" y="618"/>
      <point x="456" y="539" type="curve" smooth="yes"/>
      <point x="456" y="431"/>
      <point x="376" y="372"/>
      <point x="257" y="372" type="curve" smooth="yes"/>
      <point x="235" y="372" type="line"/>
      <point x="430" y="0" type="line"/>
      <point x="534" y="0" type="line"/>
      <point x="365" y="321" type="line"/>
      <point x="484" y="351"/>
      <point x="550" y="439"/>
      <point x="550" y="548" type="curve" smooth="yes"/>
      <point x="550" y="671"/>
      <point x="455" y="724"/>
      <point x="349" y="724" type="curve" smooth="yes"/>
      <point x="133" y="724" type="line"/>
      <point x="133" y="659" type="line"/>
      <point x="44" y="0" type="line"/>
    </contour>
  </outline>
</glyph>
<glyph name="T" format="2">
  <advance width="514"/>
  <unicode hex="0054"/>
  <note>
T
</note>
  <anchor x="204" y="0" name="bottom"/>
  <anchor x="256" y="366" name="center"/>
  <anchor x="306" y="724" name="top"/>
  <outline>
    <contour>
      <point x="50" y="724" type="line"/>
      <point x="40" y="655" type="line"/>
      <point x="249" y="655" type="line"/>
      <point x="161" y="0" type="line"/>
      <point x="252" y="0" type="line"/>
      <point x="340" y="655" type="line"/>
      <point x="549" y="655" type="line"/>
      <point x="558" y="724" type="line"/>
    </contour>
  </outline>
</glyph>
<glyph name="W" format="2">
  <advance width="795"/>
  <unicode hex="0057"/>
  <note>
W
</note>
  <anchor x="457" y="724" name="top"/>
  <outline>
    <contour>
      <point x="138" y="724" type="curve"/>
      <point x="44" y="724" type="line"/>
      <point x="139" y="-3" type="line"/>
      <point x="212" y="-3" type="line"/>
      <point x="285" y="181"/>
      <point x="360" y="365"/>
      <point x="426" y="549" type="curve"/>
      <point x="445" y="365"/>
      <point x="470" y="181"/>
      <point x="494" y="-3" type="curve"/>
      <point x="567" y="-3" type="line"/>
      <point x="854" y="724" type="line"/>
      <point x="780" y="724" type="line"/>
      <point x="706" y="535"/>
      <point x="630" y="347"/>
      <point x="561" y="158" type="curve"/>
      <point x="544" y="347"/>
      <point x="518" y="535"/>
      <point x="494" y="724" type="curve"/>
      <point x="424" y="724" type="line"/>
      <point x="350" y="535"/>
      <point x="275" y="347"/>
      <point x="206" y="158" type="curve"/>
      <point x="187" y="347"/>
      <point x="162" y="535"/>
    </contour>
  </outline>
</glyph>
<glyph name="X" format="2">
  <advance width="545"/>
  <unicode hex="0058"/>
  <note>
X
</note>
  <outline>
    <contour>
      <point x="478" y="724" type="line"/>
      <point x="-33" y="0" type="line"/>
      <point x="66" y="0" type="line"/>
      <point x="578" y="724" type="line"/>
    </contour>
    <contour>
      <point x="185" y="724" type="line"/>
      <point x="83" y="724" type="line"/>
      <point x="398" y="0" type="line"/>
      <point x="502" y="0" type="line"/>
    </contour>
  </outline>
</glyph>
<glyph name="asciicircum" format="2">
  <advance width="618"/>
  <unicode hex="005E"/>
  <note>
asciicircum
</note>
  <outline>
    <contour>
      <point x="332" y="400" type="line"/>
      <point x="452" y="0" type="line"/>
      <point x="528" y="0" type="line"/>
      <point x="380" y="491" type="line"/>
      <point x="307" y="491" type="line"/>
      <point x="21" y="0" type="line"/>
      <point x="98" y="0" type="line"/>
    </contour>
  </outline>
</glyph>
<glyph name="underscore" format="2">
  <advance width="462"/>
  <unicode hex="005F"/>
  <note>
underscore
</note>
  <outline>
    <contour>
      <point x="-21" y="-128" type="line"/>
      <point x="471" y="-128" type="line"/>
      <point x="480" y="-73" type="line"/>
      <point x="-12" y="-73" type="line"/>
    </contour>
  </outline>
</glyph>
<glyph name="a" format="2">
  <advance width="509"/>
  <unicode hex="0061"/>
  <note>
a
</note>
  <guideline x="113" y="460" angle="90"/>
  <guideline x="30" y="460" angle="90"/>
  <anchor x="202" y="0" name="bottom"/>
  <anchor x="436" y="0" name="ogonek"/>
  <anchor x="282" y="490" name="top"/>
  <outline>
    <contour>
      <point x="418" y="495" type="line"/>
      <point x="371" y="419" type="line"/>
      <point x="356" y="307" type="line" smooth="yes"/>
      <point x="339" y="177"/>
      <point x="291" y="51"/>
      <point x="203" y="51" type="curve" smooth="yes"/>
      <point x="143" y="51"/>
      <point x="118" y="116"/>
      <point x="118" y="194" type="curve" smooth="yes"/>
      <point x="118" y="309"/>
      <point x="164" y="441"/>
      <point x="288" y="441" type="curve" smooth="yes"/>
      <point x="329" y="441"/>
      <point x="366" y="425"/>
      <point x="407" y="389" type="curve"/>
      <point x="407" y="448" type="line"/>
      <point x="371" y="489"/>
      <point x="327" y="503"/>
      <point x="286" y="503" type="curve" smooth="yes"/>
      <point x="116" y="503"/>
      <point x="35" y="342"/>
      <point x="35" y="193" type="curve" smooth="yes"/>
      <point x="35" y="81"/>
      <point x="79" y="-13"/>
      <point x="187" y="-13" type="curve" smooth="yes"/>
      <point x="241" y="-13"/>
      <point x="299" y="19"/>
      <point x="330" y="74" type="curve"/>
      <point x="334" y="74" type="line"/>
      <point x="335" y="26"/>
      <point x="365" y="-11"/>
      <point x="413" y="-11" type="curve" smooth="yes"/>
      <point x="438" y="-11"/>
      <point x="466" y="0"/>
      <point x="488" y="12" type="curve"/>
      <point x="477" y="62" type="line"/>
      <point x="465" y="58"/>
      <point x="450" y="54"/>
      <point x="437" y="54" type="curve" smooth="yes"/>
      <point x="412" y="54"/>
      <point x="404" y="70"/>
      <point x="404" y="94" type="curve" smooth="yes"/>
      <point x="404" y="121"/>
      <point x="411" y="164"/>
      <point x="462" y="495" type="curve"/>
    </contour>
  </outline>
</glyph>
<glyph name="e" format="2">
  <advance width="454"/>
  <unicode hex="0065"/>
  <note>
e
</note>
  <guideline x="119" y="360" angle="90"/>
  <guideline x="36" y="360" angle="90"/>
  <guideline x="462" y="57" angle="0"/>
  <anchor x="224" y="0" name="bottom"/>
  <anchor x="293" y="0" name="ogonek"/>
  <anchor x="289" y="490" name="top"/>
  <outline>
    <contour>
      <point x="292" y="503" type="curve" smooth="yes"/>
      <point x="123" y="503"/>
      <point x="36" y="348"/>
      <point x="36" y="207" type="curve" smooth="yes"/>
      <point x="36" y="87"/>
      <point x="93" y="-13"/>
      <point x="234" y="-13" type="curve" smooth="yes"/>
      <point x="293" y="-13"/>
      <point x="359" y="9"/>
      <point x="407" y="43" type="curve"/>
      <point x="381" y="92" type="line"/>
      <point x="332" y="69"/>
      <point x="286" y="57"/>
      <point x="247" y="57" type="curve" smooth="yes"/>
      <point x="170" y="57"/>
      <point x="119" y="105"/>
      <point x="119" y="213" type="curve" smooth="yes"/>
      <point x="119" y="320"/>
      <point x="175" y="441"/>
      <point x="282" y="441" type="curve" smooth="yes"/>
      <point x="315" y="441"/>
      <point x="344" y="424"/>
      <point x="344" y="390" type="curve" smooth="yes"/>
      <point x="344" y="306"/>
      <point x="214" y="249"/>
      <point x="107" y="261" type="curve"/>
      <point x="107" y="202" type="line"/>
      <point x="289" y="197"/>
      <point x="428" y="271"/>
      <point x="428" y="397" type="curve" smooth="yes"/>
      <point x="428" y="473"/>
      <point x="361" y="503"/>
    </contour>
  </outline>
</glyph>
<glyph name="g" format="2">
  <advance width="486"/>
  <unicode hex="0067"/>
  <note>
g
</note>
  <anchor x="287" y="490" name="top"/>
  <outline>
    <contour>
      <point x="418" y="495" type="line"/>
      <point x="371" y="419" type="line"/>
      <point x="356" y="307" type="line" smooth="yes"/>
      <point x="339" y="177"/>
      <point x="291" y="51"/>
      <point x="203" y="51" type="curve" smooth="yes"/>
      <point x="143" y="51"/>
      <point x="118" y="116"/>
      <point x="118" y="194" type="curve" smooth="yes"/>
      <point x="118" y="309"/>
      <point x="164" y="441"/>
      <point x="288" y="441" type="curve" smooth="yes"/>
      <point x="329" y="441"/>
      <point x="366" y="425"/>
      <point x="407" y="389" type="curve"/>
      <point x="407" y="448" type="line"/>
      <point x="371" y="489"/>
      <point x="327" y="503"/>
      <point x="286" y="503" type="curve" smooth="yes"/>
      <point x="116" y="503"/>
      <point x="35" y="342"/>
      <point x="35" y="193" type="curve" smooth="yes"/>
      <point x="35" y="81"/>
      <point x="79" y="-13"/>
      <point x="187" y="-13" type="curve" smooth="yes"/>
      <point x="241" y="-13"/>
      <point x="291" y="18"/>
      <point x="314" y="52" type="curve"/>
      <point x="318" y="52" type="line"/>
      <point x="309" y="-7" type="line" smooth="yes"/>
      <point x="296" y="-95"/>
      <point x="257" y="-165"/>
      <point x="148" y="-165" type="curve" smooth="yes"/>
      <point x="119" y="-165"/>
      <point x="76" y="-145"/>
      <point x="48" y="-115" type="curve"/>
      <point x="7" y="-185" type="line"/>
      <point x="22" y="-196"/>
      <point x="83" y="-230"/>
      <point x="157" y="-230" type="curve" smooth="yes"/>
      <point x="334" y="-230"/>
      <point x="376" y="-97"/>
      <point x="393" y="21" type="curve" smooth="yes"/>
      <point x="462" y="495" type="line"/>
    </contour>
  </outline>
</glyph>
<glyph name="k" format="2">
  <advance width="482"/>
  <unicode hex="006B"/>
  <note>
k
</note>
  <anchor x="210" y="0" name="bottom"/>
  <outline>
    <contour>
      <point x="330" y="503" type="curve" smooth="yes"/>
      <point x="267" y="503"/>
      <point x="200" y="460"/>
      <point x="158" y="414" type="curve"/>
      <point x="158" y="350" type="line"/>
      <point x="209" y="401"/>
      <point x="267" y="431"/>
      <point x="308" y="431" type="curve" smooth="yes"/>
      <point x="344" y="431"/>
      <point x="373" y="412"/>
      <point x="373" y="376" type="curve" smooth="yes"/>
      <point x="373" y="315"/>
      <point x="301" y="261"/>
      <point x="188" y="249" type="curve"/>
      <point x="227" y="171"/>
      <point x="270" y="78"/>
      <point x="324" y="0" type="curve"/>
      <point x="418" y="0" type="line"/>
      <point x="365" y="71"/>
      <point x="324" y="150"/>
      <point x="290" y="219" type="curve"/>
      <point x="404" y="256"/>
      <point x="454" y="326"/>
      <point x="454" y="397" type="curve" smooth="yes"/>
      <point x="454" y="455"/>
      <point x="411" y="503"/>
    </contour>
    <contour>
      <point x="223" y="764" type="line"/>
      <point x="135" y="764" type="line"/>
      <point x="135" y="707" type="line"/>
      <point x="39" y="0" type="line"/>
      <point x="119" y="0" type="line"/>
    </contour>
  </outline>
</glyph>
<glyph name="m" format="2">
  <advance width="762"/>
  <unicode hex="006D"/>
  <note>
m
</note>
  <outline>
    <contour>
      <point x="164" y="500" type="curve"/>
      <point x="76" y="490" type="line"/>
      <point x="76" y="490"/>
      <point x="91" y="457"/>
      <point x="91" y="402" type="curve" smooth="yes"/>
      <point x="91" y="389"/>
      <point x="90" y="374"/>
      <point x="88" y="359" type="curve" smooth="yes"/>
      <point x="41" y="0" type="line"/>
      <point x="120" y="0" type="line"/>
      <point x="169" y="365" type="line"/>
      <point x="180" y="374"/>
      <point x="248" y="431"/>
      <point x="298" y="431" type="curve" smooth="yes"/>
      <point x="350" y="431"/>
      <point x="362" y="395"/>
      <point x="362" y="355" type="curve" smooth="yes"/>
      <point x="362" y="338"/>
      <point x="360" y="319"/>
      <point x="358" y="303" type="curve" smooth="yes"/>
      <point x="318" y="0" type="line"/>
      <point x="398" y="0" type="line"/>
      <point x="445" y="364" type="line"/>
      <point x="480" y="394"/>
      <point x="530" y="431"/>
      <point x="575" y="431" type="curve" smooth="yes"/>
      <point x="628" y="431"/>
      <point x="640" y="394"/>
      <point x="640" y="353" type="curve" smooth="yes"/>
      <point x="640" y="336"/>
      <point x="638" y="319"/>
      <point x="636" y="303" type="curve" smooth="yes"/>
      <point x="596" y="0" type="line"/>
      <point x="683" y="0" type="line"/>
      <point x="683" y="58" type="line"/>
      <point x="719" y="329" type="line" smooth="yes"/>
      <point x="721" y="345"/>
      <point x="722" y="360"/>
      <point x="722" y="373" type="curve" smooth="yes"/>
      <point x="722" y="480"/>
      <point x="658" y="503"/>
      <point x="597" y="503" type="curve" smooth="yes"/>
      <point x="535" y="503"/>
      <point x="480" y="458"/>
      <point x="439" y="421" type="curve"/>
      <point x="418" y="484"/>
      <point x="374" y="503"/>
      <point x="320" y="503" type="curve" smooth="yes"/>
      <point x="262" y="503"/>
      <point x="212" y="463"/>
      <point x="173" y="428" type="curve"/>
      <point x="173" y="451"/>
      <point x="168" y="488"/>
    </contour>
  </outline>
</glyph>
<glyph name="q" format="2">
  <advance width="486"/>
  <unicode hex="0071"/>
  <note>
q
</note>
  <outline>
    <contour>
      <point x="418" y="495" type="line"/>
      <point x="371" y="419" type="line"/>
      <point x="356" y="307" type="line" smooth="yes"/>
      <point x="339" y="177"/>
      <point x="291" y="51"/>
      <point x="203" y="51" type="curve" smooth="yes"/>
      <point x="143" y="51"/>
      <point x="118" y="116"/>
      <point x="118" y="194" type="curve" smooth="yes"/>
      <point x="118" y="309"/>
      <point x="164" y="441"/>
      <point x="288" y="441" type="curve" smooth="yes"/>
      <point x="329" y="441"/>
      <point x="366" y="425"/>
      <point x="407" y="389" type="curve"/>
      <point x="407" y="448" type="line"/>
      <point x="371" y="489"/>
      <point x="327" y="503"/>
      <point x="286" y="503" type="curve" smooth="yes"/>
      <point x="116" y="503"/>
      <point x="35" y="342"/>
      <point x="35" y="193" type="curve" smooth="yes"/>
      <point x="35" y="81"/>
      <point x="79" y="-13"/>
      <point x="187" y="-13" type="curve" smooth="yes"/>
      <point x="241" y="-13"/>
      <point x="291" y="18"/>
      <point x="314" y="52" type="curve"/>
      <point x="318" y="52" type="line"/>
      <point x="282" y="-223" type="line"/>
      <point x="370" y="-223" type="line"/>
      <point x="370" y="-167" type="line"/>
      <point x="462" y="495" type="line"/>
    </contour>
  </outline>
</glyph>
<glyph name="t" format="2">
  <advance width="287"/>
  <unicode hex="0074"/>
  <note>
t
</note>
  <anchor x="119" y="0" name="bottom"/>
  <anchor x="122" y="264" name="center"/>
  <anchor x="77" y="490" name="topright"/>
  <outline>
    <contour>
      <point x="226" y="631" type="curve"/>
      <point x="164" y="631" type="line"/>
      <point x="128" y="521"/>
      <point x="95" y="490"/>
      <point x="41" y="490" type="curve"/>
      <point x="32" y="427" type="line"/>
      <point x="101" y="427" type="line"/>
      <point x="60" y="116" type="line"/>
      <point x="60" y="116"/>
      <point x="57" y="92"/>
      <point x="57" y="81" type="curve" smooth="yes"/>
      <point x="57" y="0"/>
      <point x="104" y="-13"/>
      <point x="152" y="-13" type="curve" smooth="yes"/>
      <point x="195" y="-13"/>
      <point x="248" y="7"/>
      <point x="248" y="7" type="curve"/>
      <point x="241" y="60" type="line"/>
      <point x="213" y="53"/>
      <point x="191" y="49"/>
      <point x="176" y="49" type="curve" smooth="yes"/>
      <point x="147" y="49"/>
      <point x="137" y="64"/>
      <point x="137" y="89" type="curve" smooth="yes"/>
      <point x="137" y="95"/>
      <point x="139" y="110"/>
      <point x="139" y="110" type="curve"/>
      <point x="180" y="427" type="line"/>
      <point x="282" y="427" type="line"/>
      <point x="302" y="490" type="line"/>
      <point x="189" y="490" type="line"/>
      <point x="200" y="542"/>
      <point x="211" y="580"/>
    </contour>
  </outline>
</glyph>
<glyph name="x" format="2">
  <advance width="388"/>
  <unicode hex="0078"/>
  <note>
x
</note>
  <outline>
    <contour>
      <point x="131" y="490" type="line"/>
      <point x="42" y="490" type="line"/>
      <point x="279" y="0" type="line"/>
      <point x="370" y="0" type="line"/>
    </contour>
    <contour>
      <point x="331" y="490" type="line"/>
      <point x="-36" y="0" type="line"/>
      <point x="54" y="0" type="line"/>
      <point x="421" y="490" type="line"/>
    </contour>
  </outline>
</glyph>
<glyph name="bar" format="2">
  <advance width="236"/>
  <unicode hex="007C"/>
  <note>
bar
</note>
  <outline>
    <contour>
      <point x="144" y="742" type="line"/>
      <point x="24" y="-109" type="line"/>
      <point x="92" y="-109" type="line"/>
      <point x="212" y="742" type="line"/>
    </contour>
  </outline>
</glyph>
<glyph name="braceright" format="2">
  <advance width="321"/>
  <unicode hex="007D"/>
  <note>
braceright
</note>
  <outline>
    <contour>
      <point x="145" y="736" type="curve" smooth="yes"/>
      <point x="120" y="736" type="line"/>
      <point x="114" y="689" type="line"/>
      <point x="179" y="689"/>
      <point x="200" y="676"/>
      <point x="191" y="609" type="curve" smooth="yes"/>
      <point x="166" y="431" type="line" smooth="yes"/>
      <point x="158" y="377"/>
      <point x="160" y="321"/>
      <point x="214" y="301" type="curve"/>
      <point x="154" y="281"/>
      <point x="138" y="224"/>
      <point x="130" y="170" type="curve" smooth="yes"/>
      <point x="106" y="0" type="line" smooth="yes"/>
      <point x="96" y="-71"/>
      <point x="78" y="-88"/>
      <point x="4" y="-88" type="curve"/>
      <point x="-2" y="-135" type="line"/>
      <point x="20" y="-135" type="line" smooth="yes"/>
      <point x="128" y="-135"/>
      <point x="177" y="-73"/>
      <point x="191" y="28" type="curve" smooth="yes"/>
      <point x="212" y="181" type="line" smooth="yes"/>
      <point x="218" y="225"/>
      <point x="233" y="278"/>
      <point x="290" y="278" type="curve"/>
      <point x="296" y="323" type="line"/>
      <point x="247" y="323"/>
      <point x="238" y="367"/>
      <point x="244" y="409" type="curve" smooth="yes"/>
      <point x="267" y="573" type="line" smooth="yes"/>
      <point x="281" y="674"/>
      <point x="250" y="736"/>
    </contour>
  </outline>
</glyph>
<glyph name="asciitilde" format="2">
  <advance width="559"/>
  <unicode hex="007E"/>
  <note>
asciitilde
</note>
  <outline>
    <contour>
      <point x="518" y="297" type="curve"/>
      <point x="476" y="343" type="line"/>
      <point x="454" y="312"/>
      <point x="418" y="277"/>
      <point x="381" y="277" type="curve" smooth="yes"/>
      <point x="328" y="277"/>
      <point x="268" y="343"/>
      <point x="185" y="343" type="curve" smooth="yes"/>
      <point x="128" y="343"/>
      <point x="70" y="297"/>
      <point x="40" y="247" type="curve"/>
      <point x="86" y="203" type="line"/>
      <point x="105" y="234"/>
      <point x="139" y="271"/>
      <point x="175" y="271" type="curve" smooth="yes"/>
      <point x="248" y="271"/>
      <point x="294" y="204"/>
      <point x="370" y="204" type="curve" smooth="yes"/>
      <point x="423" y="204"/>
      <point x="485" y="254"/>
    </contour>
  </outline>
</glyph>
<glyph name="exclamdown" format="2">
  <advance width="245"/>
  <unicode hex="00A1"/>
  <note>
exclamdown
</note>
  <outline>
    <contour>
      <point x="110" y="-232" type="line"/>
      <point x="153" y="279" type="line"/>
      <point x="94" y="279" type="line"/>
      <point x="-7" y="-232" type="line"/>
    </contour>
    <contour>
      <point x="79" y="434" type="curve" smooth="yes"/>
      <point x="79" y="402"/>
      <point x="104" y="377"/>
      <point x="137" y="377" type="curve" smooth="yes"/>
      <point x="177" y="377"/>
      <point x="213" y="411"/>
      <point x="213" y="452" type="curve" smooth="yes"/>
      <point x="213" y="484"/>
      <point x="188" y="509"/>
      <point x="155" y="509" type="curve" smooth="yes"/>
      <point x="116" y="509"/>
      <point x="79" y="474"/>
    </contour>
  </outline>
</glyph>
<glyph name="cent" format="2">
  <advance width="493"/>
  <unicode hex="00A2"/>
  <note>
cent
</note>
  <outline>
    <contour>
      <point x="317" y="485" type="curve" smooth="yes"/>
      <point x="177" y="485"/>
      <point x="72" y="356"/>
      <point x="72" y="202" type="curve" smooth="yes"/>
      <point x="72" y="83"/>
      <point x="139" y="11"/>
      <point x="242" y="11" type="curve" smooth="yes"/>
      <point x="297" y="11"/>
      <point x="346" y="25"/>
      <point x="401" y="56" type="curve"/>
      <point x="378" y="108" type="line"/>
      <point x="337" y="88"/>
      <point x="298" y="78"/>
      <point x="266" y="78" type="curve" smooth="yes"/>
      <point x="199" y="78"/>
      <point x="158" y="122"/>
      <point x="158" y="207" type="curve" smooth="yes"/>
      <point x="158" y="313"/>
      <point x="212" y="421"/>
      <point x="308" y="421" type="curve" smooth="yes"/>
      <point x="338" y="421"/>
      <point x="370" y="408"/>
      <point x="400" y="381" type="curve"/>
      <point x="449" y="439" type="line"/>
      <point x="408" y="471"/>
      <point x="362" y="485"/>
    </contour>
    <contour>
      <point x="246" y="33" type="line"/>
      <point x="200" y="33" type="line"/>
      <point x="138" y="-118" type="line"/>
      <point x="210" y="-118" type="line"/>
    </contour>
    <contour>
      <point x="296" y="468" type="line"/>
      <point x="344" y="468" type="line"/>
      <point x="404" y="612" type="line"/>
      <point x="330" y="612" type="line"/>
    </contour>
  </outline>
</glyph>
<glyph name="currency" format="2">
  <advance width="536"/>
  <unicode hex="00A4"/>
  <note>
currency
</note>
  <outline>
    <contour>
      <point x="296" y="458" type="curve" smooth="yes"/>
      <point x="252" y="458"/>
      <point x="210" y="442"/>
      <point x="174" y="416" type="curve"/>
      <point x="128" y="471" type="line"/>
      <point x="72" y="422" type="line"/>
      <point x="121" y="365" type="line"/>
      <point x="92" y="327"/>
      <point x="71" y="274"/>
      <point x="71" y="222" type="curve" smooth="yes"/>
      <point x="71" y="191"/>
      <point x="77" y="163"/>
      <point x="88" y="139" type="curve"/>
      <point x="24" y="83" type="line"/>
      <point x="66" y="34" type="line"/>
      <point x="127" y="87" type="line"/>
      <point x="156" y="61"/>
      <point x="194" y="45"/>
      <point x="238" y="45" type="curve" smooth="yes"/>
      <point x="281" y="45"/>
      <point x="324" y="60"/>
      <point x="360" y="87" type="curve"/>
      <point x="406" y="34" type="line"/>
      <point x="462" y="82" type="line"/>
      <point x="412" y="138" type="line"/>
      <point x="442" y="178"/>
      <point x="463" y="225"/>
      <point x="463" y="280" type="curve" smooth="yes"/>
      <point x="463" y="310"/>
      <point x="456" y="339"/>
      <point x="444" y="365" type="curve"/>
      <point x="510" y="422" type="line"/>
      <point x="468" y="471" type="line"/>
      <point x="405" y="417" type="line"/>
      <point x="377" y="443"/>
      <point x="339" y="458"/>
    </contour>
    <contour>
      <point x="287" y="397" type="curve" smooth="yes"/>
      <point x="350" y="397"/>
      <point x="391" y="345"/>
      <point x="391" y="277" type="curve" smooth="yes"/>
      <point x="391" y="175"/>
      <point x="316" y="106"/>
      <point x="246" y="106" type="curve" smooth="yes"/>
      <point x="189" y="106"/>
      <point x="144" y="154"/>
      <point x="144" y="226" type="curve" smooth="yes"/>
      <point x="144" y="319"/>
      <point x="211" y="397"/>
    </contour>
  </outline>
</glyph>
<glyph name="dieresis" format="2">
  <advance width="276"/>
  <unicode hex="00A8"/>
  <note>
dieresis
</note>
  <anchor x="174" y="490" name="_top"/>
  <outline>
    <contour>
      <point x="171" y="665" type="curve" smooth="yes"/>
      <point x="171" y="693"/>
      <point x="151" y="714"/>
      <point x="122" y="714" type="curve" smooth="yes"/>
      <point x="89" y="714"/>
      <point x="58" y="684"/>
      <point x="58" y="649" type="curve" smooth="yes"/>
      <point x="58" y="622"/>
      <point x="78" y="600"/>
      <point x="106" y="600" type="curve" smooth="yes"/>
      <point x="140" y="600"/>
      <point x="171" y="630"/>
    </contour>
    <contour>
      <point x="334" y="665" type="curve" smooth="yes"/>
      <point x="334" y="693"/>
      <point x="314" y="714"/>
      <point x="285" y="714" type="curve" smooth="yes"/>
      <point x="252" y="714"/>
      <point x="221" y="684"/>
      <point x="221" y="649" type="curve" smooth="yes"/>
      <point x="221" y="622"/>
      <point x="241" y="600"/>
      <point x="269" y="600" type="curve" smooth="yes"/>
      <point x="303" y="600"/>
      <point x="334" y="630"/>
    </contour>
  </outline>
</glyph>
<glyph name="ordfeminine" format="2">
  <advance width="363"/>
  <unicode hex="00AA"/>
  <note>
ordfeminine
</note>
  <outline>
    <contour>
      <point x="243" y="721" type="curve" smooth="yes"/>
      <point x="136" y="721"/>
      <point x="72" y="605"/>
      <point x="72" y="509" type="curve" smooth="yes"/>
      <point x="72" y="442"/>
      <point x="104" y="385"/>
      <point x="174" y="385" type="curve" smooth="yes"/>
      <point x="210" y="385"/>
      <point x="244" y="400"/>
      <point x="267" y="433" type="curve"/>
      <point x="271" y="433" type="line"/>
      <point x="275" y="403"/>
      <point x="295" y="386"/>
      <point x="325" y="386" type="curve" smooth="yes"/>
      <point x="341" y="386"/>
      <point x="359" y="394"/>
      <point x="373" y="401" type="curve"/>
      <point x="366" y="434" type="line"/>
      <point x="358" y="431"/>
      <point x="349" y="429"/>
      <point x="340" y="429" type="curve" smooth="yes"/>
      <point x="324" y="429"/>
      <point x="319" y="439"/>
      <point x="319" y="455" type="curve" smooth="yes"/>
      <point x="319" y="466"/>
      <point x="327" y="514"/>
      <point x="364" y="716" type="curve"/>
      <point x="331" y="716" type="line"/>
      <point x="314" y="691" type="line"/>
      <point x="297" y="713"/>
      <point x="267" y="721"/>
    </contour>
    <contour>
      <point x="244" y="676" type="curve" smooth="yes"/>
      <point x="264" y="676"/>
      <point x="283" y="668"/>
      <point x="297" y="651" type="curve"/>
      <point x="288" y="598" type="line" smooth="yes"/>
      <point x="274" y="513"/>
      <point x="245" y="429"/>
      <point x="184" y="429" type="curve" smooth="yes"/>
      <point x="148" y="429"/>
      <point x="132" y="466"/>
      <point x="132" y="512" type="curve" smooth="yes"/>
      <point x="132" y="585"/>
      <point x="173" y="676"/>
    </contour>
    <contour>
      <point x="85" y="277" type="line"/>
      <point x="314" y="277" type="line"/>
      <point x="322" y="331" type="line"/>
      <point x="94" y="331" type="line"/>
    </contour>
  </outline>
</glyph>
<glyph name="guillemetleft" format="2">
  <advance width="454"/>
  <unicode hex="00AB"/>
  <note>
guillemotleft
</note>
  <outline>
    <contour>
      <point x="231" y="181" type="line"/>
      <point x="135" y="331" type="line"/>
      <point x="272" y="482" type="line"/>
      <point x="212" y="493" type="line"/>
      <point x="45" y="332" type="line"/>
      <point x="172" y="172" type="line"/>
    </contour>
    <contour>
      <point x="380" y="181" type="line"/>
      <point x="283" y="331" type="line"/>
      <point x="422" y="482" type="line"/>
      <point x="360" y="493" type="line"/>
      <point x="193" y="332" type="line"/>
      <point x="320" y="172" type="line"/>
    </contour>
  </outline>
</glyph>
<glyph name="logicalnot" format="2">
  <advance width="638"/>
  <unicode hex="00AC"/>
  <note>
logicalnot
</note>
  <outline>
    <contour>
      <point x="513" y="279" type="line"/>
      <point x="486" y="89" type="line"/>
      <point x="547" y="89" type="line"/>
      <point x="583" y="339" type="line"/>
      <point x="90" y="339" type="line"/>
      <point x="81" y="279" type="line"/>
    </contour>
  </outline>
</glyph>
<glyph name="registered" format="2">
  <advance width="471"/>
  <unicode hex="00AE"/>
  <note>
registered
</note>
  <outline>
    <contour>
      <point x="485" y="603" type="curve" smooth="yes"/>
      <point x="485" y="713"/>
      <point x="395" y="801"/>
      <point x="286" y="801" type="curve" smooth="yes"/>
      <point x="176" y="801"/>
      <point x="88" y="713"/>
      <point x="88" y="603" type="curve" smooth="yes"/>
      <point x="88" y="493"/>
      <point x="176" y="405"/>
      <point x="286" y="405" type="curve" smooth="yes"/>
      <point x="395" y="405"/>
      <point x="485" y="493"/>
    </contour>
    <contour>
      <point x="452" y="603" type="curve" smooth="yes"/>
      <point x="452" y="512"/>
      <point x="377" y="438"/>
      <point x="286" y="438" type="curve" smooth="yes"/>
      <point x="195" y="438"/>
      <point x="121" y="512"/>
      <point x="121" y="603" type="curve" smooth="yes"/>
      <point x="121" y="694"/>
      <point x="195" y="768"/>
      <point x="286" y="768" type="curve" smooth="yes"/>
      <point x="377" y="768"/>
      <point x="452" y="694"/>
    </contour>
    <contour>
      <point x="205" y="717" type="line"/>
      <point x="205" y="492" type="line"/>
      <point x="255" y="492" type="line"/>
      <point x="255" y="588" type="line"/>
      <point x="273" y="588" type="line"/>
      <point x="338" y="492" type="line"/>
      <point x="398" y="492" type="line"/>
      <point x="325" y="596" type="line"/>
      <point x="350" y="605"/>
      <point x="371" y="625"/>
      <point x="371" y="653" type="curve" smooth="yes"/>
      <point x="371" y="704"/>
      <point x="335" y="717"/>
      <point x="293" y="717" type="curve" smooth="yes"/>
    </contour>
    <contour>
      <point x="255" y="680" type="line"/>
      <point x="286" y="680" type="line" smooth="yes"/>
      <point x="305" y="680"/>
      <point x="321" y="672"/>
      <point x="321" y="655" type="curve" smooth="yes"/>
      <point x="321" y="632"/>
      <point x="304" y="625"/>
      <point x="279" y="625" type="curve" smooth="yes"/>
      <point x="255" y="625" type="line"/>
    </contour>
  </outline>
</glyph>
<glyph name="macron" format="2">
  <advance width="305"/>
  <unicode hex="00AF"/>
  <note>
macron
</note>
  <anchor x="190" y="490" name="_top"/>
  <outline>
    <contour>
      <point x="63" y="689" type="line"/>
      <point x="55" y="625" type="line"/>
      <point x="359" y="625" type="line"/>
      <point x="367" y="689" type="line"/>
    </contour>
  </outline>
</glyph>
<glyph name="plusminus" format="2">
  <advance width="632"/>
  <unicode hex="00B1"/>
  <note>
plusminus
</note>
  <outline>
    <contour>
      <point x="329" y="80" type="line"/>
      <point x="353" y="251" type="line"/>
      <point x="568" y="251" type="line"/>
      <point x="578" y="320" type="line"/>
      <point x="363" y="320" type="line"/>
      <point x="386" y="490" type="line"/>
      <point x="316" y="490" type="line"/>
      <point x="293" y="320" type="line"/>
      <point x="79" y="320" type="line"/>
      <point x="69" y="251" type="line"/>
      <point x="283" y="251" type="line"/>
      <point x="259" y="80" type="line"/>
    </contour>
    <contour>
      <point x="43" y="68" type="line"/>
      <point x="34" y="0" type="line"/>
      <point x="533" y="0" type="line"/>
      <point x="542" y="68" type="line"/>
    </contour>
  </outline>
</glyph>
<glyph name="twosuperior" format="2">
  <advance width="455"/>
  <unicode hex="00B2"/>
  <note>
uni00B2
</note>
  <outline>
    <contour>
      <point x="97" y="475" type="curve"/>
      <point x="97" y="434" type="line"/>
      <point x="403" y="434" type="line"/>
      <point x="430" y="502" type="line"/>
      <point x="208" y="502" type="line"/>
      <point x="301" y="565"/>
      <point x="460" y="695"/>
      <point x="460" y="822" type="curve" smooth="yes"/>
      <point x="460" y="875"/>
      <point x="429" y="928"/>
      <point x="337" y="928" type="curve" smooth="yes"/>
      <point x="233" y="928"/>
      <point x="163" y="864"/>
      <point x="163" y="864" type="curve"/>
      <point x="188" y="817" type="line"/>
      <point x="188" y="817"/>
      <point x="250" y="870"/>
      <point x="314" y="870" type="curve" smooth="yes"/>
      <point x="357" y="870"/>
      <point x="381" y="844"/>
      <point x="381" y="807" type="curve" smooth="yes"/>
      <point x="381" y="689"/>
      <point x="132" y="501"/>
    </contour>
  </outline>
</glyph>
<glyph name="micro" format="2">
  <advance width="584"/>
  <unicode hex="00B5"/>
  <note>
uni00B5
</note>
  <outline>
    <contour>
      <point x="224" y="490" type="curve"/>
      <point x="132" y="490" type="line"/>
      <point x="136" y="433" type="line"/>
      <point x="53" y="-186" type="line"/>
      <point x="135" y="-186" type="line"/>
      <point x="161" y="1" type="line"/>
      <point x="180" y="-8"/>
      <point x="201" y="-13"/>
      <point x="222" y="-13" type="curve" smooth="yes"/>
      <point x="280" y="-13"/>
      <point x="347" y="32"/>
      <point x="376" y="58" type="curve"/>
      <point x="376" y="16"/>
      <point x="391" y="-12"/>
      <point x="426" y="-12" type="curve" smooth="yes"/>
      <point x="466" y="-12"/>
      <point x="526" y="20"/>
      <point x="526" y="20" type="curve"/>
      <point x="516" y="71" type="line"/>
      <point x="516" y="71"/>
      <point x="486" y="59"/>
      <point x="466" y="59" type="curve" smooth="yes"/>
      <point x="460" y="59"/>
      <point x="455" y="61"/>
      <point x="455" y="70" type="curve"/>
      <point x="455" y="83"/>
      <point x="492" y="350"/>
      <point x="511" y="490" type="curve"/>
      <point x="419" y="490" type="line"/>
      <point x="423" y="433" type="line"/>
      <point x="382" y="127" type="line"/>
      <point x="371" y="116"/>
      <point x="305" y="61"/>
      <point x="244" y="61" type="curve" smooth="yes"/>
      <point x="192" y="61"/>
      <point x="179" y="98"/>
      <point x="179" y="141" type="curve" smooth="yes"/>
      <point x="179" y="162"/>
      <point x="179" y="160"/>
    </contour>
  </outline>
</glyph>
<glyph name="paragraph" format="2">
  <advance width="500"/>
  <unicode hex="00B6"/>
  <note>
paragraph
</note>
  <outline>
    <contour>
      <point x="103" y="-110" type="curve"/>
      <point x="87" y="-154" type="line"/>
      <point x="100" y="-158"/>
      <point x="112" y="-160"/>
      <point x="125" y="-160" type="curve" smooth="yes"/>
      <point x="166" y="-160"/>
      <point x="203" y="-137"/>
      <point x="223" y="-99" type="curve"/>
      <point x="229" y="-100"/>
      <point x="235" y="-100"/>
      <point x="241" y="-100" type="curve" smooth="yes"/>
      <point x="301" y="-100"/>
      <point x="358" y="-51"/>
      <point x="366" y="10" type="curve" smooth="yes"/>
      <point x="458" y="664" type="line"/>
      <point x="514" y="664" type="line"/>
      <point x="522" y="718" type="line"/>
      <point x="330" y="718" type="line" smooth="yes"/>
      <point x="184" y="718"/>
      <point x="77" y="631"/>
      <point x="77" y="492" type="curve" smooth="yes"/>
      <point x="77" y="399"/>
      <point x="146" y="332"/>
      <point x="241" y="332" type="curve"/>
      <point x="188" y="-47" type="line" smooth="yes"/>
      <point x="183" y="-83"/>
      <point x="159" y="-112"/>
      <point x="122" y="-112" type="curve" smooth="yes"/>
      <point x="116" y="-112"/>
      <point x="110" y="-112"/>
    </contour>
    <contour>
      <point x="343" y="664" type="line"/>
      <point x="404" y="664" type="line"/>
      <point x="312" y="10" type="line" smooth="yes"/>
      <point x="308" y="-20"/>
      <point x="281" y="-47"/>
      <point x="243" y="-47" type="curve"/>
    </contour>
  </outline>
</glyph>
<glyph name="periodcentered" format="2">
  <advance width="285"/>
  <unicode hex="00B7"/>
  <note>
periodcentered
</note>
  <outline>
    <contour>
      <point x="215" y="265" type="curve" smooth="yes"/>
      <point x="215" y="298"/>
      <point x="190" y="322"/>
      <point x="156" y="322" type="curve" smooth="yes"/>
      <point x="117" y="322"/>
      <point x="81" y="287"/>
      <point x="81" y="247" type="curve" smooth="yes"/>
      <point x="81" y="214"/>
      <point x="105" y="189"/>
      <point x="139" y="189" type="curve" smooth="yes"/>
      <point x="178" y="189"/>
      <point x="215" y="224"/>
    </contour>
  </outline>
</glyph>
<glyph name="onesuperior" format="2">
  <advance width="455"/>
  <unicode hex="00B9"/>
  <note>
uni00B9
</note>
  <outline>
    <contour>
      <point x="123" y="493" type="line"/>
      <point x="115" y="434" type="line"/>
      <point x="404" y="434" type="line"/>
      <point x="412" y="493" type="line"/>
      <point x="317" y="493" type="line"/>
      <point x="374" y="918" type="line"/>
      <point x="327" y="918" type="line"/>
      <point x="157" y="852" type="line"/>
      <point x="167" y="803" type="line"/>
      <point x="287" y="838" type="line"/>
      <point x="241" y="493" type="line"/>
    </contour>
  </outline>
</glyph>
<glyph name="onequarter" format="2">
  <advance width="1151"/>
  <unicode hex="00BC"/>
  <note>
onequarter
</note>
  <outline>
    <contour>
      <point x="798" y="730" type="line"/>
      <point x="321" y="-7" type="line"/>
      <point x="385" y="-7" type="line"/>
      <point x="864" y="730" type="line"/>
    </contour>
    <contour>
      <point x="96" y="303" type="line"/>
      <point x="88" y="244" type="line"/>
      <point x="377" y="244" type="line"/>
      <point x="385" y="303" type="line"/>
      <point x="290" y="303" type="line"/>
      <point x="347" y="728" type="line"/>
      <point x="300" y="728" type="line"/>
      <point x="130" y="662" type="line"/>
      <point x="140" y="613" type="line"/>
      <point x="260" y="648" type="line"/>
      <point x="214" y="303" type="line"/>
    </contour>
    <contour>
      <point x="940" y="110" type="line"/>
      <point x="923" y="0" type="line"/>
      <point x="1003" y="0" type="line"/>
      <point x="1020" y="110" type="line"/>
      <point x="1078" y="110" type="line"/>
      <point x="1105" y="169" type="line"/>
      <point x="1030" y="169" type="line"/>
      <point x="1079" y="483" type="line"/>
      <point x="999" y="483" type="line"/>
      <point x="718" y="150" type="line"/>
      <point x="711" y="110" type="line"/>
    </contour>
    <contour>
      <point x="987" y="387" type="line"/>
      <point x="950" y="169" type="line"/>
      <point x="806" y="169" type="line"/>
    </contour>
  </outline>
</glyph>
<glyph name="multiply" format="2">
  <advance width="534"/>
  <unicode hex="00D7"/>
  <note>
multiply
</note>
  <outline>
    <contour>
      <point x="261" y="202" type="line"/>
      <point x="391" y="50" type="line"/>
      <point x="442" y="94" type="line"/>
      <point x="310" y="246" type="line"/>
      <point x="484" y="398" type="line"/>
      <point x="447" y="442" type="line"/>
      <point x="273" y="290" type="line"/>
      <point x="143" y="442" type="line"/>
      <point x="92" y="398" type="line"/>
      <point x="224" y="246" type="line"/>
      <point x="50" y="94" type="line"/>
      <point x="87" y="50" type="line"/>
    </contour>
  </outline>
</glyph>
<glyph name="eth" format="2">
  <advance width="508"/>
  <unicode hex="00F0"/>
  <note>
eth
</note>
  <outline>
    <contour>
      <point x="288" y="505" type="curve" smooth="yes"/>
      <point x="137" y="505"/>
      <point x="37" y="354"/>
      <point x="37" y="199" type="curve" smooth="yes"/>
      <point x="37" y="83"/>
      <point x="99" y="-10"/>
      <point x="220" y="-10" type="curve" smooth="yes"/>
      <point x="375" y="-10"/>
      <point x="471" y="144"/>
      <point x="471" y="302" type="curve" smooth="yes"/>
      <point x="471" y="442"/>
      <point x="404" y="577"/>
      <point x="341" y="673" type="curve"/>
      <point x="444" y="729" type="line"/>
      <point x="423" y="771" type="line"/>
      <point x="313" y="712" type="line"/>
      <point x="296" y="737"/>
      <point x="277" y="757"/>
      <point x="264" y="772" type="curve"/>
      <point x="207" y="739" type="line"/>
      <point x="221" y="723"/>
      <point x="238" y="703"/>
      <point x="254" y="680" type="curve"/>
      <point x="146" y="622" type="line"/>
      <point x="171" y="582" type="line"/>
      <point x="279" y="640" type="line"/>
      <point x="306" y="597"/>
      <point x="331" y="546"/>
      <point x="351" y="492" type="curve"/>
      <point x="332" y="500"/>
      <point x="312" y="505"/>
    </contour>
    <contour>
      <point x="280" y="445" type="curve" smooth="yes"/>
      <point x="362" y="445"/>
      <point x="386" y="366"/>
      <point x="386" y="293" type="curve" smooth="yes"/>
      <point x="386" y="175"/>
      <point x="328" y="50"/>
      <point x="227" y="50" type="curve" smooth="yes"/>
      <point x="146" y="50"/>
      <point x="121" y="128"/>
      <point x="121" y="200" type="curve" smooth="yes"/>
      <point x="121" y="266"/>
      <point x="155" y="445"/>
    </contour>
  </outline>
</glyph>
<glyph name="dcaron" format="2">
  <advance width="577"/>
  <unicode hex="010F"/>
  <outline>
    <contour>
      <point x="300" y="503" type="curve" smooth="yes"/>
      <point x="135" y="503"/>
      <point x="37" y="330"/>
      <point x="37" y="179" type="curve" smooth="yes"/>
      <point x="37" y="75"/>
      <point x="86" y="-13"/>
      <point x="194" y="-13" type="curve" smooth="yes"/>
      <point x="253" y="-13"/>
      <point x="306" y="19"/>
      <point x="342" y="74" type="curve"/>
      <point x="346" y="74" type="line"/>
      <point x="347" y="26"/>
      <point x="377" y="-11"/>
      <point x="425" y="-11" type="curve" smooth="yes"/>
      <point x="450" y="-11"/>
      <point x="478" y="0"/>
      <point x="500" y="12" type="curve"/>
      <point x="489" y="62" type="line"/>
      <point x="477" y="58"/>
      <point x="462" y="54"/>
      <point x="449" y="54" type="curve" smooth="yes"/>
      <point x="424" y="54"/>
      <point x="416" y="70"/>
      <point x="416" y="94" type="curve" smooth="yes"/>
      <point x="416" y="109"/>
      <point x="434" y="239"/>
      <point x="509" y="764" type="curve"/>
      <point x="422" y="764" type="line"/>
      <point x="422" y="710" type="line"/>
      <point x="390" y="474" type="line"/>
      <point x="370" y="489"/>
      <point x="338" y="503"/>
    </contour>
    <contour>
      <point x="303" y="441" type="curve" smooth="yes"/>
      <point x="334" y="441"/>
      <point x="362" y="428"/>
      <point x="383" y="409" type="curve"/>
      <point x="368" y="307" type="line" smooth="yes"/>
      <point x="349" y="177"/>
      <point x="302" y="49"/>
      <point x="210" y="49" type="curve" smooth="yes"/>
      <point x="155" y="49"/>
      <point x="130" y="108"/>
      <point x="130" y="180" type="curve" smooth="yes"/>
      <point x="130" y="294"/>
      <point x="185" y="441"/>
    </contour>
    <contour>
      <point x="581" y="764" type="line"/>
      <point x="549" y="612" type="line"/>
      <point x="622" y="612" type="line"/>
      <point x="693" y="764" type="line"/>
    </contour>
  </outline>
</glyph>
<glyph name="iogonek" format="2">
  <advance width="227"/>
  <unicode hex="012F"/>
  <outline>
    <contour>
      <point x="227" y="668" type="curve" smooth="yes"/>
      <point x="227" y="695"/>
      <point x="206" y="719"/>
      <point x="176" y="719" type="curve" smooth="yes"/>
      <point x="140" y="719"/>
      <point x="110" y="685"/>
      <point x="110" y="652" type="curve" smooth="yes"/>
      <point x="110" y="624"/>
      <point x="131" y="602"/>
      <point x="161" y="602" type="curve" smooth="yes"/>
      <point x="197" y="602"/>
      <point x="227" y="634"/>
    </contour>
    <contour>
      <point x="186" y="490" type="line"/>
      <point x="98" y="490" type="line"/>
      <point x="98" y="433" type="line"/>
      <point x="40" y="0" type="line"/>
      <point x="128" y="0" type="line"/>
      <point x="128" y="58" type="line"/>
    </contour>
    <contour>
      <point x="122" y="5" type="curve"/>
      <point x="116" y="28" type="line"/>
      <point x="45" y="11"/>
      <point x="-82" y="-51"/>
      <point x="-82" y="-132" type="curve" smooth="yes"/>
      <point x="-82" y="-171"/>
      <point x="-56" y="-201"/>
      <point x="-1" y="-201" type="curve" smooth="yes"/>
      <point x="59" y="-201"/>
      <point x="110" y="-167"/>
      <point x="133" y="-151" type="curve"/>
      <point x="122" y="-114" type="line"/>
      <point x="95" y="-129"/>
      <point x="62" y="-146"/>
      <point x="41" y="-146" type="curve" smooth="yes"/>
      <point x="14" y="-146"/>
      <point x="0" y="-133"/>
      <point x="0" y="-111" type="curve" smooth="yes"/>
      <point x="0" y="-56"/>
      <point x="77" y="-16"/>
    </contour>
  </outline>
</glyph>
<glyph name="kgreenlandic" format="2">
  <advance width="477"/>
  <unicode hex="0138"/>
  <outline>
    <contour>
      <point x="337" y="503" type="curve" smooth="yes"/>
      <point x="280" y="503"/>
      <point x="205" y="471"/>
      <point x="155" y="384" type="curve"/>
      <point x="155" y="323" type="line"/>
      <point x="207" y="406"/>
      <point x="270" y="431"/>
      <point x="312" y="431" type="curve" smooth="yes"/>
      <point x="345" y="431"/>
      <point x="368" y="415"/>
      <point x="368" y="385" type="curve" smooth="yes"/>
      <point x="368" y="338"/>
      <point x="303" y="267"/>
      <point x="181" y="243" type="curve"/>
      <point x="219" y="165"/>
      <point x="269" y="78"/>
      <point x="324" y="0" type="curve"/>
      <point x="418" y="0" type="line"/>
      <point x="364" y="71"/>
      <point x="312" y="151"/>
      <point x="279" y="220" type="curve"/>
      <point x="400" y="266"/>
      <point x="453" y="333"/>
      <point x="453" y="398" type="curve" smooth="yes"/>
      <point x="453" y="465"/>
      <point x="403" y="503"/>
    </contour>
    <contour>
      <point x="186" y="490" type="line"/>
      <point x="106" y="490" type="line"/>
      <point x="39" y="0" type="line"/>
      <point x="119" y="0" type="line"/>
    </contour>
  </outline>
</glyph>
<glyph name="ldot" format="2">
  <advance width="315"/>
  <unicode hex="0140"/>
  <outline>
    <contour>
      <point x="223" y="764" type="line"/>
      <point x="135" y="764" type="line"/>
      <point x="135" y="707" type="line"/>
      <point x="39" y="0" type="line"/>
      <point x="128" y="0" type="line"/>
      <point x="128" y="58" type="line"/>
    </contour>
    <contour>
      <point x="348" y="319" type="curve" smooth="yes"/>
      <point x="348" y="351"/>
      <point x="323" y="377"/>
      <point x="290" y="377" type="curve" smooth="yes"/>
      <point x="250" y="377"/>
      <point x="214" y="342"/>
      <point x="214" y="301" type="curve" smooth="yes"/>
      <point x="214" y="269"/>
      <point x="239" y="245"/>
      <point x="272" y="245" type="curve" smooth="yes"/>
      <point x="311" y="245"/>
      <point x="348" y="279"/>
    </contour>
  </outline>
</glyph>
<glyph name="Eng" format="2">
  <advance width="674"/>
  <unicode hex="014A"/>
  <outline>
    <contour>
      <point x="45" y="0" type="line"/>
      <point x="119" y="0" type="line"/>
      <point x="192" y="545" type="line" smooth="yes"/>
      <point x="195" y="567"/>
      <point x="198" y="590"/>
      <point x="201" y="622" type="curve"/>
      <point x="211" y="591"/>
      <point x="221" y="571"/>
      <point x="231" y="550" type="curve" smooth="yes"/>
      <point x="477" y="46" type="line"/>
      <point x="466" y="-38"/>
      <point x="441" y="-155"/>
      <point x="334" y="-170" type="curve"/>
      <point x="342" y="-222" type="line"/>
      <point x="506" y="-207"/>
      <point x="546" y="-91"/>
      <point x="565" y="48" type="curve" smooth="yes"/>
      <point x="657" y="724" type="line"/>
      <point x="584" y="724" type="line"/>
      <point x="519" y="249" type="line" smooth="yes"/>
      <point x="516" y="227"/>
      <point x="513" y="205"/>
      <point x="510" y="173" type="curve"/>
      <point x="499" y="206"/>
      <point x="488" y="229"/>
      <point x="477" y="252" type="curve" smooth="yes"/>
      <point x="248" y="724" type="line"/>
      <point x="134" y="724" type="line"/>
      <point x="134" y="659" type="line"/>
    </contour>
  </outline>
</glyph>
<glyph name="eng" format="2">
  <advance width="494"/>
  <unicode hex="014B"/>
  <outline>
    <contour>
      <point x="41" y="0" type="line"/>
      <point x="121" y="0" type="line"/>
      <point x="170" y="362" type="line"/>
      <point x="185" y="375"/>
      <point x="249" y="431"/>
      <point x="308" y="431" type="curve" smooth="yes"/>
      <point x="361" y="431"/>
      <point x="373" y="396"/>
      <point x="373" y="357" type="curve" smooth="yes"/>
      <point x="373" y="339"/>
      <point x="370" y="320"/>
      <point x="368" y="303" type="curve" smooth="yes"/>
      <point x="328" y="13" type="line" smooth="yes"/>
      <point x="318" y="-59"/>
      <point x="301" y="-150"/>
      <point x="223" y="-188" type="curve"/>
      <point x="231" y="-228" type="line"/>
      <point x="357" y="-211"/>
      <point x="395" y="-78"/>
      <point x="409" y="25" type="curve" smooth="yes"/>
      <point x="451" y="329" type="line" smooth="yes"/>
      <point x="453" y="345"/>
      <point x="454" y="360"/>
      <point x="454" y="373" type="curve" smooth="yes"/>
      <point x="454" y="480"/>
      <point x="390" y="503"/>
      <point x="330" y="503" type="curve" smooth="yes"/>
      <point x="265" y="503"/>
      <point x="212" y="463"/>
      <point x="173" y="429" type="curve"/>
      <point x="172" y="458"/>
      <point x="167" y="490"/>
      <point x="164" y="500" type="curve"/>
      <point x="76" y="490" type="line"/>
      <point x="76" y="490"/>
      <point x="92" y="461"/>
      <point x="92" y="402" type="curve" smooth="yes"/>
      <point x="92" y="387"/>
      <point x="91" y="369"/>
      <point x="88" y="350" type="curve" smooth="yes"/>
    </contour>
  </outline>
</glyph>
<glyph name="OE" format="2">
  <advance width="978"/>
  <unicode hex="0152"/>
  <note>
OE
</note>
  <outline>
    <contour>
      <point x="530" y="77" type="curve"/>
      <point x="520" y="0" type="line"/>
      <point x="922" y="0" type="line"/>
      <point x="931" y="69" type="line"/>
      <point x="618" y="69" type="line"/>
      <point x="654" y="337" type="line"/>
      <point x="896" y="337" type="line"/>
      <point x="906" y="405" type="line"/>
      <point x="664" y="405" type="line"/>
      <point x="696" y="655" type="line"/>
      <point x="1009" y="655" type="line"/>
      <point x="1019" y="724" type="line"/>
      <point x="616" y="724" type="line"/>
      <point x="606" y="648" type="line"/>
      <point x="564" y="701"/>
      <point x="498" y="734"/>
      <point x="407" y="734" type="curve" smooth="yes"/>
      <point x="165" y="734"/>
      <point x="45" y="502"/>
      <point x="45" y="289" type="curve" smooth="yes"/>
      <point x="45" y="127"/>
      <point x="123" y="-10"/>
      <point x="304" y="-10" type="curve" smooth="yes"/>
      <point x="397" y="-10"/>
      <point x="472" y="23"/>
    </contour>
    <contour>
      <point x="317" y="59" type="curve" smooth="yes"/>
      <point x="182" y="59"/>
      <point x="140" y="174"/>
      <point x="140" y="291" type="curve" smooth="yes"/>
      <point x="140" y="449"/>
      <point x="212" y="665"/>
      <point x="398" y="665" type="curve" smooth="yes"/>
      <point x="532" y="665"/>
      <point x="574" y="551"/>
      <point x="574" y="433" type="curve" smooth="yes"/>
      <point x="574" y="275"/>
      <point x="504" y="59"/>
    </contour>
  </outline>
</glyph>
<glyph name="oe" format="2">
  <advance width="795"/>
  <unicode hex="0153"/>
  <note>
oe
</note>
  <outline>
    <contour>
      <point x="216" y="-13" type="curve" smooth="yes"/>
      <point x="378" y="-13"/>
      <point x="463" y="145"/>
      <point x="463" y="286" type="curve" smooth="yes"/>
      <point x="463" y="400"/>
      <point x="409" y="503"/>
      <point x="283" y="503" type="curve" smooth="yes"/>
      <point x="121" y="503"/>
      <point x="36" y="345"/>
      <point x="36" y="204" type="curve" smooth="yes"/>
      <point x="36" y="90"/>
      <point x="90" y="-13"/>
    </contour>
    <contour>
      <point x="223" y="49" type="curve" smooth="yes"/>
      <point x="149" y="49"/>
      <point x="119" y="125"/>
      <point x="119" y="209" type="curve" smooth="yes"/>
      <point x="119" y="318"/>
      <point x="171" y="441"/>
      <point x="276" y="441" type="curve" smooth="yes"/>
      <point x="350" y="441"/>
      <point x="380" y="365"/>
      <point x="380" y="281" type="curve" smooth="yes"/>
      <point x="380" y="172"/>
      <point x="328" y="49"/>
    </contour>
    <contour>
      <point x="580" y="57" type="curve" smooth="yes"/>
      <point x="492" y="57"/>
      <point x="460" y="126"/>
      <point x="460" y="213" type="curve" smooth="yes"/>
      <point x="460" y="320"/>
      <point x="516" y="441"/>
      <point x="623" y="441" type="curve" smooth="yes"/>
      <point x="656" y="441"/>
      <point x="685" y="424"/>
      <point x="685" y="390" type="curve" smooth="yes"/>
      <point x="685" y="301"/>
      <point x="545" y="249"/>
      <point x="448" y="261" type="curve"/>
      <point x="448" y="202" type="line"/>
      <point x="630" y="197"/>
      <point x="769" y="271"/>
      <point x="769" y="397" type="curve" smooth="yes"/>
      <point x="769" y="473"/>
      <point x="702" y="503"/>
      <point x="633" y="503" type="curve" smooth="yes"/>
      <point x="464" y="503"/>
      <point x="377" y="348"/>
      <point x="377" y="207" type="curve" smooth="yes"/>
      <point x="377" y="87"/>
      <point x="434" y="-13"/>
      <point x="575" y="-13" type="curve" smooth="yes"/>
      <point x="634" y="-13"/>
      <point x="700" y="9"/>
      <point x="748" y="43" type="curve"/>
      <point x="719" y="102" type="line"/>
      <point x="678" y="74"/>
      <point x="630" y="57"/>
    </contour>
  </outline>
</glyph>
<glyph name="Schwa" format="2">
  <advance width="710"/>
  <unicode hex="018F"/>
  <outline>
    <contour>
      <point x="129" y="628" type="curve"/>
      <point x="175" y="566" type="line"/>
      <point x="250" y="629"/>
      <point x="332" y="665"/>
      <point x="403" y="665" type="curve" smooth="yes"/>
      <point x="501" y="665"/>
      <point x="576" y="595"/>
      <point x="576" y="433" type="curve" smooth="yes"/>
      <point x="576" y="275"/>
      <point x="506" y="59"/>
      <point x="319" y="59" type="curve" smooth="yes"/>
      <point x="206" y="59"/>
      <point x="144" y="142"/>
      <point x="144" y="263" type="curve" smooth="yes"/>
      <point x="144" y="294"/>
      <point x="149" y="327"/>
      <point x="157" y="363" type="curve"/>
      <point x="68" y="363" type="line"/>
      <point x="60" y="326"/>
      <point x="56" y="291"/>
      <point x="56" y="258" type="curve" smooth="yes"/>
      <point x="56" y="101"/>
      <point x="145" y="-10"/>
      <point x="306" y="-10" type="curve" smooth="yes"/>
      <point x="548" y="-10"/>
      <point x="670" y="216"/>
      <point x="670" y="438" type="curve" smooth="yes"/>
      <point x="670" y="641"/>
      <point x="554" y="734"/>
      <point x="411" y="734" type="curve" smooth="yes"/>
      <point x="320" y="734"/>
      <point x="219" y="697"/>
    </contour>
    <contour>
      <point x="68" y="363" type="line"/>
      <point x="90" y="292" type="line"/>
      <point x="604" y="292" type="line"/>
      <point x="614" y="363" type="line"/>
    </contour>
  </outline>
</glyph>
<glyph name="Fhook" format="2">
  <advance width="468"/>
  <unicode hex="0191"/>
  <outline>
    <contour>
      <point x="-94" y="-170" type="curve"/>
      <point x="-86" y="-222" type="line"/>
      <point x="78" y="-207"/>
      <point x="121" y="-91"/>
      <point x="140" y="48" type="curve" smooth="yes"/>
      <point x="179" y="338" type="line"/>
      <point x="402" y="338" type="line"/>
      <point x="412" y="406" type="line"/>
      <point x="189" y="406" type="line"/>
      <point x="222" y="655" type="line"/>
      <point x="503" y="655" type="line"/>
      <point x="512" y="724" type="line"/>
      <point x="132" y="724" type="line"/>
      <point x="132" y="659" type="line"/>
      <point x="49" y="46" type="line" smooth="yes"/>
      <point x="37" y="-38"/>
      <point x="13" y="-155"/>
    </contour>
  </outline>
</glyph>
<glyph name="nhookleft" format="2">
  <advance width="496"/>
  <unicode hex="0272"/>
  <outline>
    <contour>
      <point x="-61" y="-188" type="curve"/>
      <point x="-53" y="-228" type="line"/>
      <point x="73" y="-211"/>
      <point x="111" y="-77"/>
      <point x="125" y="25" type="curve" smooth="yes"/>
      <point x="172" y="362" type="line"/>
      <point x="187" y="375"/>
      <point x="251" y="431"/>
      <point x="310" y="431" type="curve" smooth="yes"/>
      <point x="363" y="431"/>
      <point x="375" y="396"/>
      <point x="375" y="357" type="curve" smooth="yes"/>
      <point x="375" y="339"/>
      <point x="372" y="320"/>
      <point x="370" y="303" type="curve" smooth="yes"/>
      <point x="329" y="0" type="line"/>
      <point x="417" y="0" type="line"/>
      <point x="417" y="58" type="line"/>
      <point x="453" y="329" type="line" smooth="yes"/>
      <point x="455" y="345"/>
      <point x="456" y="360"/>
      <point x="456" y="373" type="curve" smooth="yes"/>
      <point x="456" y="480"/>
      <point x="392" y="503"/>
      <point x="332" y="503" type="curve" smooth="yes"/>
      <point x="267" y="503"/>
      <point x="214" y="463"/>
      <point x="175" y="429" type="curve"/>
      <point x="174" y="458"/>
      <point x="169" y="490"/>
      <point x="166" y="500" type="curve"/>
      <point x="78" y="490" type="line"/>
      <point x="78" y="490"/>
      <point x="94" y="461"/>
      <point x="94" y="402" type="curve" smooth="yes"/>
      <point x="94" y="387"/>
      <point x="93" y="369"/>
      <point x="90" y="350" type="curve" smooth="yes"/>
      <point x="44" y="13" type="line" smooth="yes"/>
      <point x="34" y="-59"/>
      <point x="17" y="-150"/>
    </contour>
  </outline>
</glyph>
<glyph name="apostrophemod" format="2">
  <advance width="286"/>
  <unicode hex="02BC"/>
  <anchor x="229" y="490" name="_topright"/>
  <outline>
    <contour>
      <point x="211" y="762" type="curve" smooth="yes"/>
      <point x="183" y="762"/>
      <point x="156" y="740"/>
      <point x="152" y="712" type="curve" smooth="yes"/>
      <point x="146" y="670"/>
      <point x="187" y="663"/>
      <point x="184" y="640" type="curve" smooth="yes"/>
      <point x="181" y="619"/>
      <point x="150" y="596"/>
      <point x="134" y="581" type="curve"/>
      <point x="142" y="572"/>
      <point x="150" y="561"/>
      <point x="159" y="553" type="curve"/>
      <point x="209" y="585"/>
      <point x="256" y="634"/>
      <point x="264" y="691" type="curve" smooth="yes"/>
      <point x="269" y="729"/>
      <point x="251" y="762"/>
    </contour>
  </outline>
</glyph>
<glyph name="ring" format="2">
  <advance width="282"/>
  <unicode hex="02DA"/>
  <note>
ring
</note>
  <anchor x="176" y="490" name="_top"/>
  <outline>
    <contour>
      <point x="211" y="758" type="curve" smooth="yes"/>
      <point x="152" y="758"/>
      <point x="99" y="706"/>
      <point x="99" y="646" type="curve" smooth="yes"/>
      <point x="99" y="598"/>
      <point x="138" y="559"/>
      <point x="187" y="559" type="curve" smooth="yes"/>
      <point x="246" y="559"/>
      <point x="299" y="610"/>
      <point x="299" y="670" type="curve" smooth="yes"/>
      <point x="299" y="719"/>
      <point x="261" y="758"/>
    </contour>
    <contour>
      <point x="204" y="706" type="curve" smooth="yes"/>
      <point x="228" y="706"/>
      <point x="248" y="686"/>
      <point x="248" y="663" type="curve" smooth="yes"/>
      <point x="248" y="634"/>
      <point x="222" y="610"/>
      <point x="194" y="610" type="curve" smooth="yes"/>
      <point x="170" y="610"/>
      <point x="150" y="629"/>
      <point x="150" y="653" type="curve" smooth="yes"/>
      <point x="150" y="683"/>
      <point x="175" y="706"/>
    </contour>
  </outline>
</glyph>
<glyph name="ogonek" format="2">
  <advance width="268"/>
  <unicode hex="02DB"/>
  <note>
ogonek
</note>
  <anchor x="133" y="0" name="_ogonek"/>
  <outline>
    <contour>
      <point x="188" y="11" type="curve"/>
      <point x="170" y="28" type="line"/>
      <point x="99" y="11"/>
      <point x="-28" y="-51"/>
      <point x="-28" y="-132" type="curve" smooth="yes"/>
      <point x="-28" y="-171"/>
      <point x="-2" y="-201"/>
      <point x="53" y="-201" type="curve" smooth="yes"/>
      <point x="113" y="-201"/>
      <point x="164" y="-167"/>
      <point x="187" y="-151" type="curve"/>
      <point x="176" y="-114" type="line"/>
      <point x="149" y="-129"/>
      <point x="116" y="-146"/>
      <point x="95" y="-146" type="curve" smooth="yes"/>
      <point x="68" y="-146"/>
      <point x="54" y="-133"/>
      <point x="54" y="-111" type="curve" smooth="yes"/>
      <point x="54" y="-51"/>
      <point x="147" y="-8"/>
    </contour>
  </outline>
</glyph>
<glyph name="tilde" format="2">
  <advance width="357"/>
  <unicode hex="02DC"/>
  <note>
tilde
</note>
  <anchor x="216" y="490" name="_top"/>
  <outline>
    <contour>
      <point x="401" y="701" type="curve"/>
      <point x="354" y="701" type="line"/>
      <point x="347" y="686"/>
      <point x="330" y="675"/>
      <point x="314" y="675" type="curve" smooth="yes"/>
      <point x="274" y="675"/>
      <point x="233" y="714"/>
      <point x="180" y="714" type="curve" smooth="yes"/>
      <point x="125" y="714"/>
      <point x="85" y="663"/>
      <point x="72" y="614" type="curve"/>
      <point x="121" y="614" type="line"/>
      <point x="129" y="628"/>
      <point x="142" y="641"/>
      <point x="159" y="641" type="curve" smooth="yes"/>
      <point x="210" y="641"/>
      <point x="245" y="602"/>
      <point x="302" y="602" type="curve" smooth="yes"/>
      <point x="354" y="602"/>
      <point x="390" y="656"/>
    </contour>
  </outline>
</glyph>
<glyph name="hungarumlaut" format="2">
  <advance width="381"/>
  <unicode hex="02DD"/>
  <note>
hungarumlaut
</note>
  <anchor x="160" y="490" name="_top"/>
  <outline>
    <contour>
      <point x="171" y="733" type="line"/>
      <point x="68" y="581" type="line"/>
      <point x="130" y="581" type="line"/>
      <point x="289" y="733" type="line"/>
    </contour>
    <contour>
      <point x="313" y="733" type="line"/>
      <point x="210" y="581" type="line"/>
      <point x="271" y="581" type="line"/>
      <point x="430" y="733" type="line"/>
    </contour>
  </outline>
</glyph>
<glyph name="slashlongcomb" format="2">
  <unicode hex="0338"/>
  <anchor x="259" y="244" name="_center"/>
  <outline>
    <contour>
      <point x="56" y="-69" type="line"/>
      <point x="509" y="526" type="line"/>
      <point x="464" y="559" type="line"/>
      <point x="14" y="-36" type="line"/>
    </contour>
  </outline>
</glyph>
<glyph name="pi" format="2">
  <advance width="669"/>
  <unicode hex="03C0"/>
  <note>
pi
</note>
  <outline>
    <contour>
      <point x="301" y="469" type="line"/>
      <point x="224" y="469" type="line"/>
      <point x="202" y="314" type="line" smooth="yes"/>
      <point x="174" y="115"/>
      <point x="160" y="66"/>
      <point x="61" y="15" type="curve"/>
      <point x="77" y="-24" type="line"/>
      <point x="229" y="24"/>
      <point x="250" y="103"/>
      <point x="280" y="320" type="curve" smooth="yes"/>
    </contour>
    <contour>
      <point x="502" y="469" type="curve"/>
      <point x="424" y="469" type="line"/>
      <point x="401" y="353"/>
      <point x="370" y="196"/>
      <point x="370" y="122" type="curve" smooth="yes"/>
      <point x="370" y="42"/>
      <point x="395" y="-5"/>
      <point x="468" y="-5" type="curve" smooth="yes"/>
      <point x="504" y="-5"/>
      <point x="536" y="7"/>
      <point x="563" y="28" type="curve"/>
      <point x="547" y="67" type="line"/>
      <point x="528" y="59"/>
      <point x="512" y="55"/>
      <point x="500" y="55" type="curve" smooth="yes"/>
      <point x="464" y="55"/>
      <point x="450" y="86"/>
      <point x="450" y="140" type="curve" smooth="yes"/>
      <point x="450" y="212"/>
      <point x="479" y="358"/>
    </contour>
    <contour>
      <point x="656" y="478" type="curve"/>
      <point x="637" y="519" type="line"/>
      <point x="602" y="500"/>
      <point x="572" y="497"/>
      <point x="536" y="497" type="curve" smooth="yes"/>
      <point x="236" y="497" type="line" smooth="yes"/>
      <point x="139" y="497"/>
      <point x="71" y="442"/>
      <point x="55" y="362" type="curve"/>
      <point x="100" y="349" type="line"/>
      <point x="118" y="395"/>
      <point x="160" y="429"/>
      <point x="209" y="429" type="curve" smooth="yes"/>
      <point x="536" y="429" type="line" smooth="yes"/>
      <point x="581" y="429"/>
      <point x="625" y="444"/>
    </contour>
  </outline>
</glyph>
<glyph name="Germandbls" format="2">
  <advance width="661"/>
  <unicode hex="1E9E"/>
  <outline>
    <contour>
      <point x="281" y="328" type="line"/>
      <point x="371" y="339" type="line"/>
      <point x="635" y="672" type="line"/>
      <point x="584" y="724" type="line"/>
    </contour>
    <contour>
      <point x="385" y="398" type="curve"/>
      <point x="281" y="328" type="line"/>
      <point x="302" y="329"/>
      <point x="321" y="330"/>
      <point x="339" y="330" type="curve" smooth="yes"/>
      <point x="471" y="330"/>
      <point x="520" y="289"/>
      <point x="520" y="210" type="curve" smooth="yes"/>
      <point x="520" y="112"/>
      <point x="453" y="58"/>
      <point x="374" y="58" type="curve" smooth="yes"/>
      <point x="323" y="58"/>
      <point x="270" y="79"/>
      <point x="228" y="124" type="curve"/>
      <point x="181" y="42" type="line"/>
      <point x="238" y="5"/>
      <point x="303" y="-12"/>
      <point x="365" y="-12" type="curve" smooth="yes"/>
      <point x="500" y="-12"/>
      <point x="622" y="72"/>
      <point x="622" y="223" type="curve" smooth="yes"/>
      <point x="622" y="362"/>
      <point x="482" y="401"/>
    </contour>
    <contour>
      <point x="143" y="724" type="line"/>
      <point x="143" y="659" type="line"/>
      <point x="55" y="0" type="line"/>
      <point x="144" y="0" type="line"/>
      <point x="232" y="655" type="line"/>
      <point x="575" y="655" type="line"/>
      <point x="584" y="724" type="line"/>
    </contour>
  </outline>
</glyph>
<glyph name="quoteleft" format="2">
  <advance width="191"/>
  <unicode hex="2018"/>
  <note>
quoteleft
</note>
  <outline>
    <contour>
      <point x="168" y="726" type="line"/>
      <point x="109" y="687"/>
      <point x="45" y="624"/>
      <point x="45" y="551" type="curve" smooth="yes"/>
      <point x="45" y="513"/>
      <point x="68" y="480"/>
      <point x="111" y="480" type="curve" smooth="yes"/>
      <point x="147" y="480"/>
      <point x="180" y="504"/>
      <point x="180" y="547" type="curve" smooth="yes"/>
      <point x="180" y="585"/>
      <point x="140" y="600"/>
      <point x="140" y="619" type="curve" smooth="yes"/>
      <point x="140" y="639"/>
      <point x="153" y="655"/>
      <point x="198" y="693" type="curve"/>
    </contour>
  </outline>
</glyph>
<glyph name="quotedblbase" format="2">
  <advance width="440"/>
  <unicode hex="201E"/>
  <note>
quotedblbase
</note>
  <outline>
    <contour>
      <point x="170" y="50" type="curve" smooth="yes"/>
      <point x="170" y="88"/>
      <point x="147" y="121"/>
      <point x="104" y="121" type="curve" smooth="yes"/>
      <point x="68" y="121"/>
      <point x="35" y="97"/>
      <point x="35" y="54" type="curve" smooth="yes"/>
      <point x="35" y="16"/>
      <point x="75" y="1"/>
      <point x="75" y="-18" type="curve" smooth="yes"/>
      <point x="75" y="-37"/>
      <point x="58" y="-58"/>
      <point x="17" y="-92" type="curve"/>
      <point x="47" y="-125" type="line"/>
      <point x="106" y="-86"/>
      <point x="170" y="-22"/>
    </contour>
    <contour>
      <point x="360" y="50" type="curve" smooth="yes"/>
      <point x="360" y="88"/>
      <point x="337" y="121"/>
      <point x="294" y="121" type="curve" smooth="yes"/>
      <point x="258" y="121"/>
      <point x="225" y="97"/>
      <point x="225" y="54" type="curve" smooth="yes"/>
      <point x="225" y="16"/>
      <point x="265" y="1"/>
      <point x="265" y="-18" type="curve" smooth="yes"/>
      <point x="265" y="-37"/>
      <point x="248" y="-58"/>
      <point x="207" y="-92" type="curve"/>
      <point x="237" y="-125" type="line"/>
      <point x="296" y="-86"/>
      <point x="360" y="-22"/>
    </contour>
  </outline>
</glyph>
<glyph name="ellipsis" format="2">
  <advance width="639"/>
  <unicode hex="2026"/>
  <note>
ellipsis
</note>
  <outline>
    <contour>
      <point x="169" y="63" type="curve" smooth="yes"/>
      <point x="169" y="95"/>
      <point x="143" y="120"/>
      <point x="110" y="120" type="curve" smooth="yes"/>
      <point x="71" y="120"/>
      <point x="34" y="85"/>
      <point x="34" y="45" type="curve" smooth="yes"/>
      <point x="34" y="13"/>
      <point x="58" y="-13"/>
      <point x="92" y="-13" type="curve" smooth="yes"/>
      <point x="132" y="-13"/>
      <point x="169" y="22"/>
    </contour>
    <contour>
      <point x="364" y="63" type="curve" smooth="yes"/>
      <point x="364" y="95"/>
      <point x="338" y="120"/>
      <point x="305" y="120" type="curve" smooth="yes"/>
      <point x="266" y="120"/>
      <point x="229" y="85"/>
      <point x="229" y="45" type="curve" smooth="yes"/>
      <point x="229" y="13"/>
      <point x="253" y="-13"/>
      <point x="287" y="-13" type="curve" smooth="yes"/>
      <point x="327" y="-13"/>
      <point x="364" y="22"/>
    </contour>
    <contour>
      <point x="560" y="63" type="curve" smooth="yes"/>
      <point x="560" y="95"/>
      <point x="534" y="120"/>
      <point x="501" y="120" type="curve" smooth="yes"/>
      <point x="462" y="120"/>
      <point x="425" y="85"/>
      <point x="425" y="45" type="curve" smooth="yes"/>
      <point x="425" y="13"/>
      <point x="449" y="-13"/>
      <point x="483" y="-13" type="curve" smooth="yes"/>
      <point x="523" y="-13"/>
      <point x="560" y="22"/>
    </contour>
  </outline>
</glyph>
<glyph name="perthousand" format="2">
  <advance width="1310"/>
  <unicode hex="2030"/>
  <note>
perthousand
</note>
  <outline>
    <contour>
      <point x="682" y="730" type="line"/>
      <point x="205" y="-7" type="line"/>
      <point x="269" y="-7" type="line"/>
      <point x="748" y="730" type="line"/>
    </contour>
    <contour>
      <point x="283" y="730" type="curve" smooth="yes"/>
      <point x="153" y="730"/>
      <point x="78" y="609"/>
      <point x="78" y="467" type="curve" smooth="yes"/>
      <point x="78" y="377"/>
      <point x="116" y="309"/>
      <point x="214" y="309" type="curve" smooth="yes"/>
      <point x="345" y="309"/>
      <point x="418" y="431"/>
      <point x="418" y="575" type="curve" smooth="yes"/>
      <point x="418" y="664"/>
      <point x="381" y="730"/>
    </contour>
    <contour>
      <point x="271" y="678" type="curve" smooth="yes"/>
      <point x="335" y="678"/>
      <point x="352" y="632"/>
      <point x="352" y="578" type="curve" smooth="yes"/>
      <point x="352" y="465"/>
      <point x="317" y="362"/>
      <point x="226" y="362" type="curve" smooth="yes"/>
      <point x="161" y="362"/>
      <point x="144" y="410"/>
      <point x="144" y="466" type="curve" smooth="yes"/>
      <point x="144" y="574"/>
      <point x="182" y="678"/>
    </contour>
    <contour>
      <point x="727" y="411" type="curve" smooth="yes"/>
      <point x="596" y="411"/>
      <point x="523" y="290"/>
      <point x="523" y="146" type="curve" smooth="yes"/>
      <point x="523" y="57"/>
      <point x="561.01" y="-10"/>
      <point x="658" y="-10" type="curve" smooth="yes"/>
      <point x="788" y="-10"/>
      <point x="863" y="113"/>
      <point x="863" y="254" type="curve" smooth="yes"/>
      <point x="863" y="344"/>
      <point x="825" y="411"/>
    </contour>
    <contour>
      <point x="715" y="358" type="curve" smooth="yes"/>
      <point x="780" y="358"/>
      <point x="796" y="312"/>
      <point x="796" y="257" type="curve" smooth="yes"/>
      <point x="796" y="145"/>
      <point x="761" y="43"/>
      <point x="670" y="43" type="curve" smooth="yes"/>
      <point x="606" y="43"/>
      <point x="588" y="90"/>
      <point x="588" y="145" type="curve" smooth="yes"/>
      <point x="588" y="254"/>
      <point x="626" y="358"/>
    </contour>
    <contour>
      <point x="283" y="730" type="line"/>
      <point x="271" y="678" type="line"/>
      <point x="696" y="678" type="line"/>
      <point x="703" y="730" type="line"/>
    </contour>
    <contour>
      <point x="1128" y="411" type="curve" smooth="yes"/>
      <point x="997" y="411"/>
      <point x="924" y="290"/>
      <point x="924" y="146" type="curve" smooth="yes"/>
      <point x="924" y="57"/>
      <point x="962" y="-10"/>
      <point x="1059" y="-10" type="curve" smooth="yes"/>
      <point x="1189" y="-10"/>
      <point x="1264" y="113"/>
      <point x="1264" y="254" type="curve" smooth="yes"/>
      <point x="1264" y="344"/>
      <point x="1226" y="411"/>
    </contour>
    <contour>
      <point x="1116" y="358" type="curve" smooth="yes"/>
      <point x="1181" y="358"/>
      <point x="1197" y="312"/>
      <point x="1197" y="257" type="curve" smooth="yes"/>
      <point x="1197" y="145"/>
      <point x="1162" y="43"/>
      <point x="1071" y="43" type="curve" smooth="yes"/>
      <point x="1007" y="43"/>
      <point x="989" y="90"/>
      <point x="989" y="145" type="curve" smooth="yes"/>
      <point x="989" y="254"/>
      <point x="1027" y="358"/>
    </contour>
  </outline>
</glyph>
<glyph name="second" format="2">
  <advance width="427"/>
  <unicode hex="2033"/>
  <outline>
    <contour>
      <point x="154" y="703" type="line"/>
      <point x="94" y="531" type="line"/>
      <point x="172" y="531" type="line"/>
      <point x="276" y="703" type="line"/>
    </contour>
    <contour>
      <point x="326" y="703" type="line"/>
      <point x="266" y="531" type="line"/>
      <point x="344" y="531" type="line"/>
      <point x="448" y="703" type="line"/>
    </contour>
  </outline>
</glyph>
<glyph name="fraction" format="2">
  <advance width="241"/>
  <unicode hex="2044"/>
  <note>
fraction
</note>
  <outline>
    <contour>
      <point x="343" y="730" type="line"/>
      <point x="-134" y="-7" type="line"/>
      <point x="-70" y="-7" type="line"/>
      <point x="409" y="730" type="line"/>
    </contour>
  </outline>
</glyph>
<glyph name="foursuperior" format="2">
  <advance width="455"/>
  <unicode hex="2074"/>
  <outline>
    <contour>
      <point x="305" y="544" type="line"/>
      <point x="288" y="434" type="line"/>
      <point x="368" y="434" type="line"/>
      <point x="385" y="544" type="line"/>
      <point x="443" y="544" type="line"/>
      <point x="470" y="603" type="line"/>
      <point x="395" y="603" type="line"/>
      <point x="444" y="917" type="line"/>
      <point x="364" y="917" type="line"/>
      <point x="83" y="584" type="line"/>
      <point x="76" y="544" type="line"/>
    </contour>
    <contour>
      <point x="352" y="821" type="line"/>
      <point x="315" y="603" type="line"/>
      <point x="171" y="603" type="line"/>
    </contour>
  </outline>
</glyph>
<glyph name="fivesuperior" format="2">
  <advance width="455"/>
  <unicode hex="2075"/>
  <outline>
    <contour>
      <point x="244" y="919" type="line"/>
      <point x="167" y="732" type="line"/>
      <point x="284" y="708"/>
      <point x="325" y="675"/>
      <point x="325" y="616" type="curve" smooth="yes"/>
      <point x="325" y="528"/>
      <point x="263" y="482"/>
      <point x="162" y="482" type="curve" smooth="yes"/>
      <point x="144" y="482"/>
      <point x="124" y="483"/>
      <point x="103" y="486" type="curve"/>
      <point x="83" y="432" type="line"/>
      <point x="108" y="427"/>
      <point x="132" y="425"/>
      <point x="156" y="425" type="curve" smooth="yes"/>
      <point x="290" y="425"/>
      <point x="406" y="502"/>
      <point x="406" y="627" type="curve" smooth="yes"/>
      <point x="406" y="693"/>
      <point x="365" y="747"/>
      <point x="247" y="776" type="curve"/>
      <point x="279" y="849" type="line"/>
      <point x="464" y="849" type="line"/>
      <point x="492" y="919" type="line"/>
    </contour>
  </outline>
</glyph>
<glyph name="ninesuperior" format="2">
  <advance width="455"/>
  <unicode hex="2079"/>
  <outline>
    <contour>
      <point x="133" y="424" type="line"/>
      <point x="314" y="456"/>
      <point x="467" y="613"/>
      <point x="467" y="788" type="curve" smooth="yes"/>
      <point x="467" y="883"/>
      <point x="403" y="928"/>
      <point x="332" y="928" type="curve" smooth="yes"/>
      <point x="210" y="928"/>
      <point x="131" y="820"/>
      <point x="131" y="731" type="curve" smooth="yes"/>
      <point x="131" y="657"/>
      <point x="185" y="612"/>
      <point x="254" y="612" type="curve" smooth="yes"/>
      <point x="292" y="612"/>
      <point x="334" y="625"/>
      <point x="375" y="654" type="curve"/>
      <point x="392" y="716" type="line"/>
      <point x="354" y="690"/>
      <point x="315" y="676"/>
      <point x="283" y="676" type="curve" smooth="yes"/>
      <point x="242" y="676"/>
      <point x="213" y="699"/>
      <point x="213" y="747" type="curve" smooth="yes"/>
      <point x="213" y="809"/>
      <point x="252" y="871"/>
      <point x="317" y="871" type="curve" smooth="yes"/>
      <point x="364" y="871"/>
      <point x="386" y="839"/>
      <point x="386" y="785" type="curve" smooth="yes"/>
      <point x="386" y="630"/>
      <point x="290" y="520"/>
      <point x="122" y="477" type="curve"/>
    </contour>
  </outline>
</glyph>
<glyph name="nmod" format="2">
  <advance width="378"/>
  <unicode hex="207F"/>
  <outline>
    <contour>
      <point x="169" y="728" type="curve"/>
      <point x="99" y="720" type="line"/>
      <point x="108" y="706"/>
      <point x="111" y="684"/>
      <point x="111" y="662" type="curve" smooth="yes"/>
      <point x="111" y="649"/>
      <point x="110" y="636"/>
      <point x="108" y="626" type="curve" smooth="yes"/>
      <point x="75" y="392" type="line"/>
      <point x="138" y="392" type="line"/>
      <point x="172" y="632" type="line"/>
      <point x="198" y="654"/>
      <point x="236" y="676"/>
      <point x="268" y="676" type="curve" smooth="yes"/>
      <point x="306" y="676"/>
      <point x="315" y="653"/>
      <point x="315" y="625" type="curve" smooth="yes"/>
      <point x="315" y="614"/>
      <point x="314" y="601"/>
      <point x="312" y="589" type="curve" smooth="yes"/>
      <point x="284" y="392" type="line"/>
      <point x="347" y="392" type="line"/>
      <point x="379" y="617" type="line" smooth="yes"/>
      <point x="380" y="626"/>
      <point x="381" y="634"/>
      <point x="381" y="642" type="curve" smooth="yes"/>
      <point x="381" y="697"/>
      <point x="353" y="731"/>
      <point x="289" y="731" type="curve" smooth="yes"/>
      <point x="250" y="731"/>
      <point x="204" y="707"/>
      <point x="176" y="681" type="curve"/>
      <point x="176" y="697"/>
      <point x="173" y="713"/>
    </contour>
  </outline>
</glyph>
<glyph name="colonsign" format="2">
  <advance width="646"/>
  <unicode hex="20A1"/>
  <outline>
    <contour>
      <point x="58" y="259" type="curve" smooth="yes"/>
      <point x="58" y="76"/>
      <point x="172" y="-13"/>
      <point x="310" y="-13" type="curve" smooth="yes"/>
      <point x="382" y="-13"/>
      <point x="462" y="14"/>
      <point x="535" y="67" type="curve"/>
      <point x="501" y="125" type="line"/>
      <point x="439" y="79"/>
      <point x="380" y="58"/>
      <point x="329" y="58" type="curve" smooth="yes"/>
      <point x="230" y="58"/>
      <point x="160" y="133"/>
      <point x="160" y="270" type="curve" smooth="yes"/>
      <point x="160" y="450"/>
      <point x="264" y="624"/>
      <point x="431" y="624" type="curve" smooth="yes"/>
      <point x="479" y="624"/>
      <point x="529" y="616"/>
      <point x="571" y="581" type="curve"/>
      <point x="601" y="655" type="line"/>
      <point x="555" y="683"/>
      <point x="496" y="697"/>
      <point x="441" y="697" type="curve" smooth="yes"/>
      <point x="214" y="697"/>
      <point x="58" y="498"/>
    </contour>
    <contour>
      <point x="80" y="-26" type="line"/>
      <point x="130" y="-57" type="line"/>
      <point x="550" y="774" type="line"/>
      <point x="499" y="805" type="line"/>
    </contour>
    <contour>
      <point x="191" y="-93" type="line"/>
      <point x="242" y="-124" type="line"/>
      <point x="661" y="707" type="line"/>
      <point x="611" y="738" type="line"/>
    </contour>
  </outline>
</glyph>
<glyph name="lira" format="2">
  <advance width="581"/>
  <unicode hex="20A4"/>
  <outline>
    <contour>
      <point x="31" y="69" type="line"/>
      <point x="21" y="0" type="line"/>
      <point x="500" y="0" type="line"/>
      <point x="510" y="69" type="line"/>
      <point x="218" y="69" type="line"/>
      <point x="279" y="506" type="line"/>
      <point x="288" y="572"/>
      <point x="330" y="628"/>
      <point x="401" y="628" type="curve" smooth="yes"/>
      <point x="447" y="628"/>
      <point x="478" y="596"/>
      <point x="492" y="557" type="curve"/>
      <point x="573" y="599" type="line"/>
      <point x="544" y="660"/>
      <point x="484" y="697"/>
      <point x="412" y="697" type="curve" smooth="yes"/>
      <point x="292" y="697"/>
      <point x="202" y="627"/>
      <point x="185" y="504" type="curve"/>
      <point x="124" y="69" type="line"/>
    </contour>
    <contour>
      <point x="109" y="432" type="line"/>
      <point x="90" y="370" type="line"/>
      <point x="414" y="370" type="line"/>
      <point x="433" y="432" type="line"/>
    </contour>
    <contour>
      <point x="90" y="296" type="line"/>
      <point x="71" y="234" type="line"/>
      <point x="395" y="234" type="line"/>
      <point x="414" y="296" type="line"/>
    </contour>
  </outline>
</glyph>
<glyph name="won" format="2">
  <advance width="913"/>
  <unicode hex="20A9"/>
  <outline>
    <contour>
      <point x="212" y="697" type="line"/>
      <point x="114" y="697" type="line"/>
      <point x="208" y="-5" type="line"/>
      <point x="285" y="-5" type="line"/>
      <point x="460" y="426" type="line" smooth="yes"/>
      <point x="472" y="454"/>
      <point x="483" y="482"/>
      <point x="496" y="520" type="curve"/>
      <point x="498" y="483"/>
      <point x="502" y="456"/>
      <point x="506" y="429" type="curve" smooth="yes"/>
      <point x="562" y="-5" type="line"/>
      <point x="639" y="-5" type="line"/>
      <point x="926" y="697" type="line"/>
      <point x="848" y="697" type="line"/>
      <point x="673" y="266" type="line" smooth="yes"/>
      <point x="659" y="234"/>
      <point x="647" y="202"/>
      <point x="632" y="160" type="curve"/>
      <point x="629" y="204"/>
      <point x="624" y="239"/>
      <point x="620" y="273" type="curve" smooth="yes"/>
      <point x="567" y="697" type="line"/>
      <point x="493" y="697" type="line"/>
      <point x="319" y="268" type="line" smooth="yes"/>
      <point x="305" y="235"/>
      <point x="293" y="203"/>
      <point x="278" y="160" type="curve"/>
      <point x="274" y="206"/>
      <point x="270" y="241"/>
      <point x="265" y="277" type="curve" smooth="yes"/>
    </contour>
    <contour>
      <point x="64" y="442" type="line"/>
      <point x="46" y="380" type="line"/>
      <point x="896" y="380" type="line"/>
      <point x="914" y="442" type="line"/>
    </contour>
    <contour>
      <point x="45" y="306" type="line"/>
      <point x="27" y="244" type="line"/>
      <point x="877" y="244" type="line"/>
      <point x="895" y="306" type="line"/>
    </contour>
  </outline>
</glyph>
<glyph name="euro" format="2">
  <advance width="645"/>
  <unicode hex="20AC"/>
  <note>
Euro
</note>
  <outline>
    <contour>
      <point x="117" y="260" type="curve" smooth="yes"/>
      <point x="117" y="76"/>
      <point x="232" y="-13"/>
      <point x="370" y="-13" type="curve" smooth="yes"/>
      <point x="442" y="-13"/>
      <point x="522" y="14"/>
      <point x="594" y="67" type="curve"/>
      <point x="561" y="125" type="line"/>
      <point x="499" y="79"/>
      <point x="440" y="58"/>
      <point x="389" y="58" type="curve" smooth="yes"/>
      <point x="290" y="58"/>
      <point x="220" y="133"/>
      <point x="220" y="270" type="curve" smooth="yes"/>
      <point x="220" y="450"/>
      <point x="325" y="627"/>
      <point x="491" y="627" type="curve" smooth="yes"/>
      <point x="539" y="627"/>
      <point x="588" y="609"/>
      <point x="629" y="572" type="curve"/>
      <point x="661" y="655" type="line"/>
      <point x="615" y="683"/>
      <point x="556" y="697"/>
      <point x="501" y="697" type="curve" smooth="yes"/>
      <point x="275" y="697"/>
      <point x="117" y="499"/>
    </contour>
    <contour>
      <point x="88" y="432" type="line"/>
      <point x="69" y="370" type="line"/>
      <point x="565" y="370" type="line"/>
      <point x="584" y="432" type="line"/>
    </contour>
    <contour>
      <point x="47" y="296" type="line"/>
      <point x="28" y="234" type="line"/>
      <point x="524" y="234" type="line"/>
      <point x="543" y="296" type="line"/>
    </contour>
  </outline>
</glyph>
<glyph name="kip" format="2">
  <advance width="633"/>
  <unicode hex="20AD"/>
  <outline>
    <contour>
      <point x="145" y="697" type="line"/>
      <point x="150" y="631" type="line"/>
      <point x="61" y="0" type="line"/>
      <point x="154" y="0" type="line"/>
      <point x="205" y="364" type="line"/>
      <point x="442" y="0" type="line"/>
      <point x="558" y="0" type="line"/>
      <point x="308" y="389" type="line"/>
      <point x="638" y="697" type="line"/>
      <point x="541" y="697" type="line"/>
      <point x="209" y="388" type="line"/>
      <point x="252" y="697" type="line"/>
    </contour>
    <contour>
      <point x="69" y="407" type="line"/>
      <point x="51" y="345" type="line"/>
      <point x="581" y="345" type="line"/>
      <point x="599" y="407" type="line"/>
    </contour>
  </outline>
</glyph>
<glyph name="cedi" format="2">
  <advance width="610"/>
  <unicode hex="20B5"/>
  <outline>
    <contour>
      <point x="58" y="259" type="curve" smooth="yes"/>
      <point x="58" y="76"/>
      <point x="173" y="-13"/>
      <point x="311" y="-13" type="curve" smooth="yes"/>
      <point x="383" y="-13"/>
      <point x="462" y="14"/>
      <point x="535" y="67" type="curve"/>
      <point x="501" y="125" type="line"/>
      <point x="439" y="79"/>
      <point x="381" y="58"/>
      <point x="330" y="58" type="curve" smooth="yes"/>
      <point x="231" y="58"/>
      <point x="160" y="133"/>
      <point x="160" y="270" type="curve" smooth="yes"/>
      <point x="160" y="450"/>
      <point x="265" y="627"/>
      <point x="431" y="627" type="curve" smooth="yes"/>
      <point x="479" y="627"/>
      <point x="528" y="609"/>
      <point x="570" y="572" type="curve"/>
      <point x="601" y="655" type="line"/>
      <point x="555" y="683"/>
      <point x="496" y="697"/>
      <point x="441" y="697" type="curve" smooth="yes"/>
      <point x="214" y="697"/>
      <point x="58" y="498"/>
    </contour>
    <contour>
      <point x="259" y="-102" type="line"/>
      <point x="320" y="-112" type="line"/>
      <point x="447" y="794" type="line"/>
      <point x="386" y="804" type="line"/>
    </contour>
  </outline>
</glyph>
<glyph name="liraTurkish" format="2">
  <advance width="574"/>
  <unicode hex="20BA"/>
  <outline>
    <contour>
      <point x="176" y="697" type="line"/>
      <point x="181" y="631" type="line"/>
      <point x="92" y="0" type="line"/>
      <point x="252" y="0" type="line" smooth="yes"/>
      <point x="432" y="0"/>
      <point x="507" y="110"/>
      <point x="530" y="273" type="curve"/>
      <point x="436" y="273" type="line"/>
      <point x="421" y="167"/>
      <point x="402" y="69"/>
      <point x="263" y="69" type="curve" smooth="yes"/>
      <point x="195" y="69" type="line"/>
      <point x="283" y="697" type="line"/>
    </contour>
    <contour>
      <point x="57" y="385" type="line"/>
      <point x="37" y="314" type="line"/>
      <point x="383" y="424" type="line"/>
      <point x="403" y="495" type="line"/>
    </contour>
    <contour>
      <point x="38" y="249" type="line"/>
      <point x="18" y="178" type="line"/>
      <point x="363" y="288" type="line"/>
      <point x="383" y="359" type="line"/>
    </contour>
  </outline>
</glyph>
<glyph name="manat" format="2">
  <advance width="783"/>
  <unicode hex="20BC"/>
  <outline>
    <contour>
      <point x="562" y="0" type="line"/>
      <point x="660" y="0" type="line"/>
      <point x="705" y="324" type="line" smooth="yes"/>
      <point x="734" y="528"/>
      <point x="668" y="697"/>
      <point x="454" y="697" type="curve" smooth="yes"/>
      <point x="240" y="697"/>
      <point x="128" y="528"/>
      <point x="99" y="324" type="curve" smooth="yes"/>
      <point x="54" y="0" type="line"/>
      <point x="152" y="0" type="line"/>
      <point x="195" y="311" type="line" smooth="yes"/>
      <point x="216" y="457"/>
      <point x="277" y="628"/>
      <point x="445" y="628" type="curve" smooth="yes"/>
      <point x="613" y="628"/>
      <point x="626" y="457"/>
      <point x="605" y="311" type="curve" smooth="yes"/>
    </contour>
    <contour>
      <point x="338" y="108" type="line"/>
      <point x="398" y="98" type="line"/>
      <point x="496" y="794" type="line"/>
      <point x="435" y="804" type="line"/>
    </contour>
  </outline>
</glyph>
<glyph name="numero" format="2">
  <advance width="1077"/>
  <unicode hex="2116"/>
  <outline>
    <contour>
      <point x="271" y="697" type="line"/>
      <point x="147" y="697" type="line"/>
      <point x="152" y="631" type="line"/>
      <point x="63" y="0" type="line"/>
      <point x="139" y="0" type="line"/>
      <point x="213" y="522" type="line" smooth="yes"/>
      <point x="216" y="543"/>
      <point x="218" y="566"/>
      <point x="219" y="587" type="curve"/>
      <point x="229" y="570"/>
      <point x="240" y="549"/>
      <point x="248" y="532" type="curve" smooth="yes"/>
      <point x="524" y="-5" type="line"/>
      <point x="583" y="-5" type="line"/>
      <point x="681" y="697" type="line"/>
      <point x="605" y="697" type="line"/>
      <point x="542" y="248" type="line" smooth="yes"/>
      <point x="539" y="226"/>
      <point x="538" y="202"/>
      <point x="536" y="180" type="curve"/>
      <point x="525" y="199"/>
      <point x="514" y="220"/>
      <point x="505" y="239" type="curve" smooth="yes"/>
    </contour>
    <contour>
      <point x="1011" y="305" type="curve" smooth="yes"/>
      <point x="1011" y="380"/>
      <point x="972" y="445"/>
      <point x="889" y="445" type="curve" smooth="yes"/>
      <point x="784" y="445"/>
      <point x="722" y="338"/>
      <point x="722" y="245" type="curve" smooth="yes"/>
      <point x="722" y="170"/>
      <point x="761" y="106"/>
      <point x="844" y="106" type="curve" smooth="yes"/>
      <point x="951" y="106"/>
      <point x="1011" y="211"/>
    </contour>
    <contour>
      <point x="950" y="302" type="curve" smooth="yes"/>
      <point x="950" y="243"/>
      <point x="920" y="154"/>
      <point x="850" y="154" type="curve" smooth="yes"/>
      <point x="799" y="154"/>
      <point x="783" y="209"/>
      <point x="783" y="252" type="curve" smooth="yes"/>
      <point x="783" y="310"/>
      <point x="815" y="397"/>
      <point x="883" y="397" type="curve" smooth="yes"/>
      <point x="935" y="397"/>
      <point x="950" y="346"/>
    </contour>
    <contour>
      <point x="716" y="0" type="line"/>
      <point x="944" y="0" type="line"/>
      <point x="953" y="54" type="line"/>
      <point x="724" y="54" type="line"/>
    </contour>
  </outline>
</glyph>
<glyph name="published" format="2">
  <advance width="639"/>
  <unicode hex="2117"/>
  <outline>
    <contour>
      <point x="592" y="250" type="curve" smooth="yes"/>
      <point x="592" y="399"/>
      <point x="469" y="522"/>
      <point x="320" y="522" type="curve" smooth="yes"/>
      <point x="170" y="522"/>
      <point x="48" y="400"/>
      <point x="48" y="250" type="curve" smooth="yes"/>
      <point x="48" y="100"/>
      <point x="170" y="-22"/>
      <point x="320" y="-22" type="curve" smooth="yes"/>
      <point x="469" y="-22"/>
      <point x="592" y="101"/>
    </contour>
    <contour>
      <point x="553" y="250" type="curve" smooth="yes"/>
      <point x="553" y="122"/>
      <point x="448" y="17"/>
      <point x="320" y="17" type="curve" smooth="yes"/>
      <point x="192" y="17"/>
      <point x="87" y="122"/>
      <point x="87" y="250" type="curve" smooth="yes"/>
      <point x="87" y="378"/>
      <point x="192" y="483"/>
      <point x="320" y="483" type="curve" smooth="yes"/>
      <point x="448" y="483"/>
      <point x="553" y="378"/>
    </contour>
    <contour>
      <point x="225" y="409" type="line"/>
      <point x="231" y="370" type="line"/>
      <point x="231" y="89" type="line"/>
      <point x="293" y="89" type="line"/>
      <point x="293" y="215" type="line"/>
      <point x="337" y="215" type="line" smooth="yes"/>
      <point x="397" y="215"/>
      <point x="448" y="251"/>
      <point x="448" y="315" type="curve" smooth="yes"/>
      <point x="448" y="384"/>
      <point x="401" y="409"/>
      <point x="336" y="409" type="curve" smooth="yes"/>
    </contour>
    <contour>
      <point x="293" y="368" type="line"/>
      <point x="329" y="368" type="line" smooth="yes"/>
      <point x="372" y="368"/>
      <point x="386" y="353"/>
      <point x="386" y="312" type="curve" smooth="yes"/>
      <point x="386" y="272"/>
      <point x="370" y="255"/>
      <point x="329" y="255" type="curve" smooth="yes"/>
      <point x="293" y="255" type="line"/>
    </contour>
  </outline>
</glyph>
<glyph name="partialdiff" format="2">
  <advance width="523"/>
  <unicode hex="2202"/>
  <note>
partialdiff
</note>
  <outline>
    <contour>
      <point x="388" y="355" type="curve"/>
      <point x="367" y="382"/>
      <point x="331" y="410"/>
      <point x="265" y="410" type="curve" smooth="yes"/>
      <point x="186" y="410"/>
      <point x="37" y="338"/>
      <point x="37" y="155" type="curve" smooth="yes"/>
      <point x="37" y="26"/>
      <point x="136" y="-10"/>
      <point x="202" y="-10" type="curve" smooth="yes"/>
      <point x="295" y="-10"/>
      <point x="487" y="74"/>
      <point x="487" y="439" type="curve" smooth="yes"/>
      <point x="487" y="631"/>
      <point x="402" y="734"/>
      <point x="277" y="734" type="curve" smooth="yes"/>
      <point x="183" y="734"/>
      <point x="130" y="683"/>
      <point x="130" y="683" type="curve"/>
      <point x="154" y="632" type="line"/>
      <point x="154" y="632"/>
      <point x="191" y="661"/>
      <point x="255" y="661" type="curve" smooth="yes"/>
      <point x="327" y="661"/>
      <point x="392" y="596"/>
      <point x="392" y="452" type="curve" smooth="yes"/>
      <point x="392" y="386"/>
      <point x="388" y="355"/>
    </contour>
    <contour>
      <point x="377" y="290" type="curve"/>
      <point x="353" y="168"/>
      <point x="295" y="57"/>
      <point x="212" y="57" type="curve" smooth="yes"/>
      <point x="148" y="57"/>
      <point x="125" y="111"/>
      <point x="125" y="162" type="curve" smooth="yes"/>
      <point x="125" y="245"/>
      <point x="185" y="340"/>
      <point x="269" y="340" type="curve" smooth="yes"/>
      <point x="320" y="340"/>
      <point x="350" y="323"/>
    </contour>
  </outline>
</glyph>
<glyph name="emptyset" format="2">
  <advance width="536"/>
  <unicode hex="2205"/>
  <outline>
    <contour>
      <point x="47" y="163" type="line"/>
      <point x="96" y="114" type="line"/>
      <point x="149" y="167" type="line"/>
      <point x="182" y="141"/>
      <point x="222" y="125"/>
      <point x="266" y="125" type="curve" smooth="yes"/>
      <point x="375" y="125"/>
      <point x="460" y="225"/>
      <point x="460" y="332" type="curve" smooth="yes"/>
      <point x="460" y="373"/>
      <point x="447" y="412"/>
      <point x="427" y="445" type="curve"/>
      <point x="485" y="502" type="line"/>
      <point x="436" y="551" type="line"/>
      <point x="381" y="497" type="line"/>
      <point x="349" y="523"/>
      <point x="309" y="538"/>
      <point x="266" y="538" type="curve" smooth="yes"/>
      <point x="162" y="538"/>
      <point x="72" y="445"/>
      <point x="72" y="332" type="curve" smooth="yes"/>
      <point x="72" y="290"/>
      <point x="84" y="251"/>
      <point x="103" y="219" type="curve"/>
    </contour>
    <contour>
      <point x="145" y="332" type="curve" smooth="yes"/>
      <point x="145" y="413"/>
      <point x="197" y="477"/>
      <point x="266" y="477" type="curve" smooth="yes"/>
      <point x="293" y="477"/>
      <point x="316" y="468"/>
      <point x="336" y="452" type="curve"/>
      <point x="155" y="274" type="line"/>
      <point x="148" y="291"/>
      <point x="145" y="311"/>
    </contour>
    <contour>
      <point x="191" y="216" type="curve"/>
      <point x="374" y="399" type="line"/>
      <point x="383" y="379"/>
      <point x="388" y="356"/>
      <point x="388" y="332" type="curve" smooth="yes"/>
      <point x="388" y="244"/>
      <point x="330" y="186"/>
      <point x="266" y="186" type="curve" smooth="yes"/>
      <point x="239" y="186"/>
      <point x="213" y="197"/>
    </contour>
  </outline>
</glyph>
<glyph name="summation" format="2">
  <advance width="726"/>
  <unicode hex="2211"/>
  <note>
summation
</note>
  <outline>
    <contour>
      <point x="2" y="-130" type="line"/>
      <point x="-12" y="-228" type="line"/>
      <point x="604" y="-228" type="line"/>
      <point x="618" y="-127" type="line"/>
      <point x="86" y="-127" type="line"/>
      <point x="458" y="294" type="line"/>
      <point x="233" y="654" type="line"/>
      <point x="718" y="654" type="line"/>
      <point x="728" y="723" type="line"/>
      <point x="122" y="723" type="line"/>
      <point x="112" y="654" type="line"/>
      <point x="348" y="266" type="line"/>
    </contour>
  </outline>
</glyph>
<glyph name="integral" format="2">
  <advance width="256"/>
  <unicode hex="222B"/>
  <note>
integral
</note>
  <outline>
    <contour>
      <point x="-66" y="-169" type="curve"/>
      <point x="-74" y="-226" type="line"/>
      <point x="49" y="-226"/>
      <point x="117" y="-156"/>
      <point x="134" y="-36" type="curve" smooth="yes"/>
      <point x="218" y="563" type="line" smooth="yes"/>
      <point x="226" y="616"/>
      <point x="259" y="676"/>
      <point x="327" y="676" type="curve"/>
      <point x="335" y="734" type="line"/>
      <point x="212" y="734"/>
      <point x="149" y="662"/>
      <point x="133" y="544" type="curve" smooth="yes"/>
      <point x="48" y="-56" type="line" smooth="yes"/>
      <point x="41" y="-110"/>
      <point x="3" y="-169"/>
    </contour>
  </outline>
</glyph>
<glyph name="approxequal" format="2">
  <advance width="657"/>
  <unicode hex="2248"/>
  <note>
approxequal
</note>
  <outline>
    <contour>
      <point x="93" y="322" type="curve"/>
      <point x="138" y="290" type="line"/>
      <point x="150" y="305"/>
      <point x="188" y="351"/>
      <point x="234" y="351" type="curve" smooth="yes"/>
      <point x="306" y="351"/>
      <point x="348" y="282"/>
      <point x="440" y="282" type="curve" smooth="yes"/>
      <point x="514" y="282"/>
      <point x="574" y="355"/>
      <point x="588" y="376" type="curve"/>
      <point x="542" y="408" type="line"/>
      <point x="534" y="394"/>
      <point x="492" y="347"/>
      <point x="446" y="347" type="curve" smooth="yes"/>
      <point x="374" y="347"/>
      <point x="332" y="416"/>
      <point x="240" y="416" type="curve" smooth="yes"/>
      <point x="166" y="416"/>
      <point x="106" y="343"/>
    </contour>
    <contour>
      <point x="66" y="131" type="curve"/>
      <point x="111" y="99" type="line"/>
      <point x="123" y="114"/>
      <point x="161" y="160"/>
      <point x="207" y="160" type="curve" smooth="yes"/>
      <point x="279" y="160"/>
      <point x="321" y="91"/>
      <point x="413" y="91" type="curve" smooth="yes"/>
      <point x="487" y="91"/>
      <point x="547" y="164"/>
      <point x="561" y="185" type="curve"/>
      <point x="515" y="217" type="line"/>
      <point x="507" y="203"/>
      <point x="465" y="156"/>
      <point x="419" y="156" type="curve" smooth="yes"/>
      <point x="347" y="156"/>
      <point x="305" y="225"/>
      <point x="213" y="225" type="curve" smooth="yes"/>
      <point x="139" y="225"/>
      <point x="79" y="152"/>
    </contour>
  </outline>
</glyph>
<glyph name="lessequal" format="2">
  <advance width="630"/>
  <unicode hex="2264"/>
  <note>
lessequal
</note>
  <outline>
    <contour>
      <point x="79" y="324" type="line"/>
      <point x="68" y="250" type="line"/>
      <point x="542" y="76" type="line"/>
      <point x="552" y="151" type="line"/>
      <point x="169" y="286" type="line"/>
      <point x="590" y="421" type="line"/>
      <point x="601" y="497" type="line"/>
    </contour>
    <contour>
      <point x="43" y="69" type="line"/>
      <point x="33" y="0" type="line"/>
      <point x="531" y="0" type="line"/>
      <point x="541" y="69" type="line"/>
    </contour>
  </outline>
</glyph>
<glyph name="greaterequal" format="2">
  <advance width="630"/>
  <unicode hex="2265"/>
  <note>
greaterequal
</note>
  <outline>
    <contour>
      <point x="55" y="151" type="line"/>
      <point x="45" y="76" type="line"/>
      <point x="567" y="250" type="line"/>
      <point x="578" y="324" type="line"/>
      <point x="104" y="497" type="line"/>
      <point x="93" y="421" type="line"/>
      <point x="476" y="286" type="line"/>
    </contour>
    <contour>
      <point x="44" y="69" type="line"/>
      <point x="34" y="0" type="line"/>
      <point x="532" y="0" type="line"/>
      <point x="542" y="69" type="line"/>
    </contour>
  </outline>
</glyph>
<glyph name="lozenge" format="2">
  <advance width="504"/>
  <unicode hex="25CA"/>
  <note>
lozenge
</note>
  <outline>
    <contour>
      <point x="300" y="732" type="line"/>
      <point x="53" y="360" type="line"/>
      <point x="196" y="-11" type="line"/>
      <point x="236" y="-11" type="line"/>
      <point x="483" y="360" type="line"/>
      <point x="340" y="732" type="line"/>
    </contour>
    <contour>
      <point x="304" y="646" type="line"/>
      <point x="310" y="646" type="line"/>
      <point x="418" y="360" type="line"/>
      <point x="229" y="70" type="line"/>
      <point x="225" y="70" type="line"/>
      <point x="118" y="360" type="line"/>
    </contour>
  </outline>
</glyph>
<glyph name="rightanglebracket-math" format="2">
  <advance width="408"/>
  <unicode hex="27E9"/>
  <outline>
    <contour>
      <point x="365" y="295" type="line"/>
      <point x="167" y="657" type="line"/>
      <point x="107" y="649" type="line"/>
      <point x="275" y="295" type="line"/>
      <point x="10" y="-57" type="line"/>
      <point x="69" y="-69" type="line"/>
    </contour>
  </outline>
</glyph>
<glyph name="fl" format="2">
  <advance width="519"/>
  <unicode hex="FB02"/>
  <note>
fl
</note>
  <outline>
    <contour>
      <point x="-93" y="-164" type="curve"/>
      <point x="-107" y="-222" type="line"/>
      <point x="10" y="-255"/>
      <point x="103" y="-198"/>
      <point x="122" y="-62" type="curve" smooth="yes"/>
      <point x="190" y="427" type="line"/>
      <point x="302" y="427" type="line"/>
      <point x="311" y="490" type="line"/>
      <point x="199" y="490" type="line"/>
      <point x="219" y="643"/>
      <point x="255" y="709"/>
      <point x="345" y="709" type="curve" smooth="yes"/>
      <point x="388" y="709"/>
      <point x="418" y="681"/>
      <point x="418" y="646" type="curve" smooth="yes"/>
      <point x="418" y="625"/>
      <point x="359" y="215"/>
      <point x="330" y="0" type="curve"/>
      <point x="420" y="0" type="line"/>
      <point x="420" y="63" type="line"/>
      <point x="514" y="766" type="line"/>
      <point x="445" y="740" type="line"/>
      <point x="436" y="747"/>
      <point x="399" y="772"/>
      <point x="341" y="772" type="curve" smooth="yes"/>
      <point x="195" y="772"/>
      <point x="151" y="659"/>
      <point x="120" y="531" type="curve" smooth="yes"/>
      <point x="109" y="488"/>
      <point x="70" y="490"/>
      <point x="46" y="490" type="curve"/>
      <point x="38" y="427" type="line"/>
      <point x="109" y="427" type="line"/>
      <point x="44" y="-52" type="line" smooth="yes"/>
      <point x="32" y="-142"/>
      <point x="-14" y="-184"/>
    </contour>
  </outline>
</glyph>
<glyph name="IJacute" format="2">
  <advance width="504"/>
  <outline>
    <contour>
      <point x="136" y="724" type="line"/>
      <point x="136" y="659" type="line"/>
      <point x="47" y="0" type="line"/>
      <point x="137" y="0" type="line"/>
      <point x="235" y="724" type="line"/>
    </contour>
    <contour>
      <point x="390" y="724" type="line"/>
      <point x="390" y="658" type="line"/>
      <point x="307" y="46" type="line" smooth="yes"/>
      <point x="296" y="-38"/>
      <point x="271" y="-155"/>
      <point x="164" y="-170" type="curve"/>
      <point x="172" y="-222" type="line"/>
      <point x="336" y="-207"/>
      <point x="376" y="-91"/>
      <point x="395" y="48" type="curve" smooth="yes"/>
      <point x="489" y="724" type="line"/>
    </contour>
    <contour>
      <point x="268" y="905" type="line"/>
      <point x="154" y="774" type="line"/>
      <point x="232" y="774" type="line"/>
      <point x="390" y="905" type="line"/>
    </contour>
    <contour>
      <point x="520" y="905" type="line"/>
      <point x="406" y="774" type="line"/>
      <point x="484" y="774" type="line"/>
      <point x="642" y="905" type="line"/>
    </contour>
  </outline>
</glyph>
<glyph name="acute.case" format="2">
  <advance width="278"/>
  <anchor x="141" y="724" name="_top"/>
  <outline>
    <contour>
      <point x="219" y="905" type="line"/>
      <point x="105" y="774" type="line"/>
      <point x="183" y="774" type="line"/>
      <point x="341" y="905" type="line"/>
    </contour>
  </outline>
</glyph>
<glyph name="acute.loclPLK.case" format="2">
  <advance width="218"/>
  <anchor x="141" y="724" name="_top"/>
  <outline>
    <contour>
      <point x="159" y="905" type="line"/>
      <point x="105" y="774" type="line"/>
      <point x="183" y="774" type="line"/>
      <point x="281" y="905" type="line"/>
    </contour>
  </outline>
</glyph>
<glyph name="baraccent" format="2">
  <advance width="402"/>
  <anchor x="211" y="316" name="_center"/>
  <outline>
    <contour>
      <point x="56" y="349" type="line"/>
      <point x="46" y="284" type="line"/>
      <point x="367" y="284" type="line"/>
      <point x="377" y="349" type="line"/>
    </contour>
  </outline>
</glyph>
<glyph name="baraccentlong" format="2">
  <advance width="732"/>
  <anchor x="377" y="316" name="_center"/>
  <outline>
    <contour>
      <point x="56" y="349" type="line"/>
      <point x="46" y="284" type="line"/>
      <point x="697" y="284" type="line"/>
      <point x="707" y="349" type="line"/>
    </contour>
  </outline>
</glyph>
<glyph name="baraccentmedium" format="2">
  <advance width="692"/>
  <anchor x="357" y="316" name="_center"/>
  <outline>
    <contour>
      <point x="56" y="349" type="line"/>
      <point x="46" y="284" type="line"/>
      <point x="657" y="284" type="line"/>
      <point x="667" y="349" type="line"/>
    </contour>
  </outline>
</glyph>
<glyph name="breveacute" format="2">
  <advance width="278"/>
  <anchor x="175" y="490" name="_top"/>
  <outline>
    <contour>
      <point x="347" y="728" type="curve"/>
      <point x="298" y="728" type="line"/>
      <point x="280" y="681"/>
      <point x="246" y="658"/>
      <point x="198" y="658" type="curve" smooth="yes"/>
      <point x="150" y="658"/>
      <point x="121" y="680"/>
      <point x="118" y="728" type="curve"/>
      <point x="68" y="728" type="line"/>
      <point x="65" y="646"/>
      <point x="101" y="589"/>
      <point x="188" y="589" type="curve" smooth="yes"/>
      <point x="278" y="589"/>
      <point x="326" y="644"/>
    </contour>
    <contour>
      <point x="266" y="859" type="line"/>
      <point x="171" y="727" type="line"/>
      <point x="239" y="727" type="line"/>
      <point x="378" y="859" type="line"/>
    </contour>
  </outline>
</glyph>
<glyph name="brevegrave" format="2">
  <advance width="280"/>
  <anchor x="175" y="490" name="_top"/>
  <outline>
    <contour>
      <point x="69" y="728" type="line"/>
      <point x="66" y="644"/>
      <point x="98" y="589"/>
      <point x="188" y="589" type="curve" smooth="yes"/>
      <point x="275" y="589"/>
      <point x="327" y="646"/>
      <point x="348" y="728" type="curve"/>
      <point x="298" y="728" type="line"/>
      <point x="281" y="680"/>
      <point x="246" y="658"/>
      <point x="198" y="658" type="curve" smooth="yes"/>
      <point x="150" y="658"/>
      <point x="122" y="681"/>
      <point x="118" y="728" type="curve"/>
    </contour>
    <contour>
      <point x="186" y="859" type="line"/>
      <point x="74" y="859" type="line"/>
      <point x="175" y="727" type="line"/>
      <point x="243" y="727" type="line"/>
    </contour>
  </outline>
</glyph>
<glyph name="breveinverted" format="2">
  <advance width="279"/>
  <anchor x="176" y="490" name="_top"/>
  <outline>
    <contour>
      <point x="49" y="589" type="curve"/>
      <point x="98" y="589" type="line"/>
      <point x="116" y="636"/>
      <point x="150" y="659"/>
      <point x="198" y="659" type="curve" smooth="yes"/>
      <point x="246" y="659"/>
      <point x="275" y="637"/>
      <point x="278" y="589" type="curve"/>
      <point x="328" y="589" type="line"/>
      <point x="331" y="671"/>
      <point x="300" y="728"/>
      <point x="213" y="728" type="curve" smooth="yes"/>
      <point x="123" y="728"/>
      <point x="70" y="673"/>
    </contour>
  </outline>
</glyph>
<glyph name="brevetilde.case" format="2">
  <advance width="280"/>
  <anchor x="209" y="724" name="_top"/>
  <outline>
    <contour>
      <point x="372" y="899" type="curve"/>
      <point x="323" y="899" type="line"/>
      <point x="308" y="867"/>
      <point x="274" y="849"/>
      <point x="226" y="849" type="curve" smooth="yes"/>
      <point x="178" y="849"/>
      <point x="147" y="867"/>
      <point x="143" y="899" type="curve"/>
      <point x="93" y="899" type="line"/>
      <point x="90" y="830"/>
      <point x="127" y="780"/>
      <point x="214" y="780" type="curve" smooth="yes"/>
      <point x="304" y="780"/>
      <point x="353" y="830"/>
    </contour>
    <contour>
      <point x="390" y="1031" type="curve"/>
      <point x="343" y="1031" type="line"/>
      <point x="336" y="1016"/>
      <point x="324" y="1005"/>
      <point x="308" y="1005" type="curve" smooth="yes"/>
      <point x="268" y="1005"/>
      <point x="255" y="1044"/>
      <point x="202" y="1044" type="curve" smooth="yes"/>
      <point x="147" y="1044"/>
      <point x="109" y="998"/>
      <point x="98" y="944" type="curve"/>
      <point x="147" y="944" type="line"/>
      <point x="151" y="957"/>
      <point x="163" y="971"/>
      <point x="180" y="971" type="curve" smooth="yes"/>
      <point x="231" y="971"/>
      <point x="239" y="932"/>
      <point x="296" y="932" type="curve" smooth="yes"/>
      <point x="348" y="932"/>
      <point x="381" y="981"/>
    </contour>
  </outline>
</glyph>
<glyph name="brevetilde" format="2">
  <advance width="296"/>
  <anchor x="184" y="490" name="_top"/>
  <outline>
    <contour>
      <point x="356" y="728" type="curve"/>
      <point x="307" y="728" type="line"/>
      <point x="289" y="681"/>
      <point x="255" y="658"/>
      <point x="207" y="658" type="curve" smooth="yes"/>
      <point x="159" y="658"/>
      <point x="130" y="680"/>
      <point x="127" y="728" type="curve"/>
      <point x="77" y="728" type="line"/>
      <point x="74" y="646"/>
      <point x="110" y="589"/>
      <point x="197" y="589" type="curve" smooth="yes"/>
      <point x="287" y="589"/>
      <point x="335" y="644"/>
    </contour>
    <contour>
      <point x="374" y="860" type="curve"/>
      <point x="327" y="860" type="line"/>
      <point x="320" y="845"/>
      <point x="308" y="834"/>
      <point x="292" y="834" type="curve" smooth="yes"/>
      <point x="252" y="834"/>
      <point x="239" y="873"/>
      <point x="186" y="873" type="curve" smooth="yes"/>
      <point x="131" y="873"/>
      <point x="93" y="827"/>
      <point x="83" y="773" type="curve"/>
      <point x="132" y="773" type="line"/>
      <point x="136" y="786"/>
      <point x="148" y="800"/>
      <point x="165" y="800" type="curve" smooth="yes"/>
      <point x="216" y="800"/>
      <point x="223" y="761"/>
      <point x="280" y="761" type="curve" smooth="yes"/>
      <point x="332" y="761"/>
      <point x="365" y="810"/>
    </contour>
  </outline>
</glyph>
<glyph name="caron.case" format="2">
  <advance width="292"/>
  <anchor x="212" y="724" name="_top"/>
  <outline>
    <contour>
      <point x="234" y="845" type="line"/>
      <point x="163" y="907" type="line"/>
      <point x="94" y="907" type="line"/>
      <point x="182" y="772" type="line"/>
      <point x="265" y="772" type="line"/>
      <point x="385" y="906" type="line"/>
      <point x="318" y="906" type="line"/>
    </contour>
  </outline>
</glyph>
<glyph name="circumflexhook" format="2">
  <advance width="291"/>
  <anchor x="178" y="490" name="_top"/>
  <outline>
    <contour>
      <point x="201" y="661" type="line"/>
      <point x="269" y="579" type="line"/>
      <point x="338" y="579" type="line"/>
      <point x="254" y="734" type="line"/>
      <point x="171" y="734" type="line"/>
      <point x="47" y="580" type="line"/>
      <point x="114" y="580" type="line"/>
    </contour>
    <contour>
      <point x="200" y="764" type="line"/>
      <point x="233" y="764" type="line"/>
      <point x="245" y="805" type="line"/>
      <point x="302" y="808"/>
      <point x="342" y="839"/>
      <point x="342" y="892" type="curve" smooth="yes"/>
      <point x="342" y="931"/>
      <point x="306" y="953"/>
      <point x="261" y="953" type="curve" smooth="yes"/>
      <point x="231" y="953"/>
      <point x="200" y="944"/>
      <point x="170" y="925" type="curve"/>
      <point x="185" y="887" type="line"/>
      <point x="203" y="898"/>
      <point x="222" y="904"/>
      <point x="239" y="904" type="curve" smooth="yes"/>
      <point x="258" y="904"/>
      <point x="272" y="896"/>
      <point x="272" y="880" type="curve" smooth="yes"/>
      <point x="272" y="852"/>
      <point x="253" y="839"/>
      <point x="225" y="839" type="curve" smooth="yes"/>
      <point x="216" y="839"/>
      <point x="207" y="840"/>
      <point x="201" y="842" type="curve"/>
    </contour>
  </outline>
</glyph>
<glyph name="dblgrave.case" format="2">
  <advance width="380"/>
  <anchor x="325" y="724" name="_top"/>
  <outline>
    <contour>
      <point x="372" y="905" type="line"/>
      <point x="254" y="905" type="line"/>
      <point x="373" y="774" type="line"/>
      <point x="435" y="774" type="line"/>
    </contour>
    <contour>
      <point x="230" y="905" type="line"/>
      <point x="113" y="905" type="line"/>
      <point x="232" y="774" type="line"/>
      <point x="293" y="774" type="line"/>
    </contour>
  </outline>
</glyph>
<glyph name="dieresisacute" format="2">
  <advance width="296"/>
  <anchor x="184" y="490" name="_top"/>
  <outline>
    <contour>
      <point x="262" y="867" type="line"/>
      <point x="190" y="755" type="line"/>
      <point x="258" y="755" type="line"/>
      <point x="374" y="867" type="line"/>
    </contour>
    <contour>
      <point x="182" y="666" type="curve" smooth="yes"/>
      <point x="182" y="694"/>
      <point x="161" y="714"/>
      <point x="132" y="714" type="curve" smooth="yes"/>
      <point x="99" y="714"/>
      <point x="68" y="684"/>
      <point x="68" y="649" type="curve" smooth="yes"/>
      <point x="68" y="622"/>
      <point x="88" y="600"/>
      <point x="116" y="600" type="curve" smooth="yes"/>
      <point x="150" y="600"/>
      <point x="182" y="631"/>
    </contour>
    <contour>
      <point x="345" y="666" type="curve" smooth="yes"/>
      <point x="345" y="694"/>
      <point x="324" y="714"/>
      <point x="295" y="714" type="curve" smooth="yes"/>
      <point x="262" y="714"/>
      <point x="231" y="684"/>
      <point x="231" y="649" type="curve" smooth="yes"/>
      <point x="231" y="622"/>
      <point x="251" y="600"/>
      <point x="279" y="600" type="curve" smooth="yes"/>
      <point x="313" y="600"/>
      <point x="345" y="631"/>
    </contour>
  </outline>
</glyph>
<glyph name="dieresisbelow" format="2">
  <advance width="280"/>
  <anchor x="106" y="0" name="bottom"/>
  <outline>
    <contour>
      <point x="63" y="-112" type="curve" smooth="yes"/>
      <point x="63" y="-84"/>
      <point x="43" y="-63"/>
      <point x="14" y="-63" type="curve" smooth="yes"/>
      <point x="-19" y="-63"/>
      <point x="-50" y="-93"/>
      <point x="-50" y="-128" type="curve" smooth="yes"/>
      <point x="-50" y="-155"/>
      <point x="-30" y="-177"/>
      <point x="-2" y="-177" type="curve" smooth="yes"/>
      <point x="32" y="-177"/>
      <point x="63" y="-147"/>
    </contour>
    <contour>
      <point x="226" y="-112" type="curve" smooth="yes"/>
      <point x="226" y="-84"/>
      <point x="206" y="-63"/>
      <point x="177" y="-63" type="curve" smooth="yes"/>
      <point x="144" y="-63"/>
      <point x="113" y="-93"/>
      <point x="113" y="-128" type="curve" smooth="yes"/>
      <point x="113" y="-155"/>
      <point x="133" y="-177"/>
      <point x="161" y="-177" type="curve" smooth="yes"/>
      <point x="195" y="-177"/>
      <point x="226" y="-147"/>
    </contour>
  </outline>
</glyph>
<glyph name="dieresiscaron.case" format="2">
  <advance width="311"/>
  <anchor x="224" y="728" name="_top"/>
  <outline>
    <contour>
      <point x="215" y="847" type="curve" smooth="yes"/>
      <point x="215" y="875"/>
      <point x="194" y="895"/>
      <point x="165" y="895" type="curve" smooth="yes"/>
      <point x="132" y="895"/>
      <point x="101" y="865"/>
      <point x="101" y="830" type="curve" smooth="yes"/>
      <point x="101" y="803"/>
      <point x="121" y="781"/>
      <point x="149" y="781" type="curve" smooth="yes"/>
      <point x="183" y="781"/>
      <point x="215" y="812"/>
    </contour>
    <contour>
      <point x="378" y="847" type="curve" smooth="yes"/>
      <point x="378" y="875"/>
      <point x="357" y="895"/>
      <point x="328" y="895" type="curve" smooth="yes"/>
      <point x="295" y="895"/>
      <point x="264" y="865"/>
      <point x="264" y="830" type="curve" smooth="yes"/>
      <point x="264" y="803"/>
      <point x="284" y="781"/>
      <point x="312" y="781" type="curve" smooth="yes"/>
      <point x="346" y="781"/>
      <point x="378" y="812"/>
    </contour>
    <contour>
      <point x="265" y="1001" type="line"/>
      <point x="195" y="1063" type="line"/>
      <point x="126" y="1063" type="line"/>
      <point x="213" y="928" type="line"/>
      <point x="296" y="928" type="line"/>
      <point x="417" y="1062" type="line"/>
      <point x="350" y="1062" type="line"/>
    </contour>
  </outline>
</glyph>
<glyph name="dieresiscaron" format="2">
  <advance width="324"/>
  <anchor x="197" y="490" name="_top"/>
  <outline>
    <contour>
      <point x="248" y="832" type="line"/>
      <point x="180" y="914" type="line"/>
      <point x="111" y="914" type="line"/>
      <point x="195" y="759" type="line"/>
      <point x="278" y="759" type="line"/>
      <point x="402" y="913" type="line"/>
      <point x="335" y="913" type="line"/>
    </contour>
    <contour>
      <point x="195" y="665" type="curve" smooth="yes"/>
      <point x="195" y="693"/>
      <point x="175" y="714"/>
      <point x="146" y="714" type="curve" smooth="yes"/>
      <point x="113" y="714"/>
      <point x="82" y="684"/>
      <point x="82" y="649" type="curve" smooth="yes"/>
      <point x="82" y="622"/>
      <point x="102" y="600"/>
      <point x="130" y="600" type="curve" smooth="yes"/>
      <point x="164" y="600"/>
      <point x="195" y="630"/>
    </contour>
    <contour>
      <point x="358" y="665" type="curve" smooth="yes"/>
      <point x="358" y="693"/>
      <point x="338" y="714"/>
      <point x="309" y="714" type="curve" smooth="yes"/>
      <point x="276" y="714"/>
      <point x="245" y="684"/>
      <point x="245" y="649" type="curve" smooth="yes"/>
      <point x="245" y="622"/>
      <point x="265" y="600"/>
      <point x="293" y="600" type="curve" smooth="yes"/>
      <point x="327" y="600"/>
      <point x="358" y="630"/>
    </contour>
  </outline>
</glyph>
<glyph name="dieresismacron.case" format="2">
  <advance width="324"/>
  <anchor x="230" y="724" name="_top"/>
  <outline>
    <contour>
      <point x="119" y="1014" type="line"/>
      <point x="110" y="950" type="line"/>
      <point x="414" y="950" type="line"/>
      <point x="423" y="1014" type="line"/>
    </contour>
    <contour>
      <point x="221" y="847" type="curve" smooth="yes"/>
      <point x="221" y="875"/>
      <point x="201" y="896"/>
      <point x="172" y="896" type="curve" smooth="yes"/>
      <point x="138" y="896"/>
      <point x="107" y="865"/>
      <point x="107" y="830" type="curve" smooth="yes"/>
      <point x="107" y="803"/>
      <point x="128" y="782"/>
      <point x="156" y="782" type="curve" smooth="yes"/>
      <point x="190" y="782"/>
      <point x="221" y="812"/>
    </contour>
    <contour>
      <point x="384" y="847" type="curve" smooth="yes"/>
      <point x="384" y="875"/>
      <point x="364" y="896"/>
      <point x="335" y="896" type="curve" smooth="yes"/>
      <point x="301" y="896"/>
      <point x="270" y="865"/>
      <point x="270" y="830" type="curve" smooth="yes"/>
      <point x="270" y="803"/>
      <point x="291" y="782"/>
      <point x="319" y="782" type="curve" smooth="yes"/>
      <point x="353" y="782"/>
      <point x="384" y="812"/>
    </contour>
  </outline>
</glyph>
<glyph name="dotaccentmacron" format="2">
  <advance width="324"/>
  <anchor x="197" y="497" name="_top"/>
  <outline>
    <contour>
      <point x="93" y="832" type="line"/>
      <point x="84" y="768" type="line"/>
      <point x="388" y="768" type="line"/>
      <point x="397" y="832" type="line"/>
    </contour>
    <contour>
      <point x="276" y="665" type="curve" smooth="yes"/>
      <point x="276" y="693"/>
      <point x="256" y="714"/>
      <point x="227" y="714" type="curve" smooth="yes"/>
      <point x="193" y="714"/>
      <point x="162" y="683"/>
      <point x="162" y="648" type="curve" smooth="yes"/>
      <point x="162" y="621"/>
      <point x="183" y="600"/>
      <point x="211" y="600" type="curve" smooth="yes"/>
      <point x="245" y="600"/>
      <point x="276" y="630"/>
    </contour>
  </outline>
</glyph>
<glyph name="dotbelow" format="2">
  <advance width="279"/>
  <anchor x="105" y="0" name="_bottom"/>
  <outline>
    <contour>
      <point x="144" y="-112" type="curve" smooth="yes"/>
      <point x="144" y="-84"/>
      <point x="124" y="-63"/>
      <point x="95" y="-63" type="curve" smooth="yes"/>
      <point x="62" y="-63"/>
      <point x="31" y="-93"/>
      <point x="31" y="-128" type="curve" smooth="yes"/>
      <point x="31" y="-155"/>
      <point x="51" y="-177"/>
      <point x="79" y="-177" type="curve" smooth="yes"/>
      <point x="113" y="-177"/>
      <point x="144" y="-147"/>
    </contour>
  </outline>
</glyph>
<glyph name="eight.lf" format="2">
  <advance width="572"/>
  <outline>
    <contour>
      <point x="365" y="711" type="curve" smooth="yes"/>
      <point x="255" y="711"/>
      <point x="129" y="639"/>
      <point x="129" y="504" type="curve" smooth="yes"/>
      <point x="129" y="324"/>
      <point x="400" y="325"/>
      <point x="400" y="189" type="curve" smooth="yes"/>
      <point x="400" y="108"/>
      <point x="331" y="49"/>
      <point x="250" y="49" type="curve" smooth="yes"/>
      <point x="191" y="49"/>
      <point x="137" y="83"/>
      <point x="137" y="150" type="curve" smooth="yes"/>
      <point x="137" y="236"/>
      <point x="194" y="295"/>
      <point x="288" y="342" type="curve"/>
      <point x="253" y="381" type="line"/>
      <point x="139" y="323"/>
      <point x="54" y="251"/>
      <point x="54" y="139" type="curve" smooth="yes"/>
      <point x="54" y="40"/>
      <point x="144" y="-11"/>
      <point x="243" y="-11" type="curve" smooth="yes"/>
      <point x="377" y="-11"/>
      <point x="498" y="75"/>
      <point x="498" y="213" type="curve" smooth="yes"/>
      <point x="498" y="402"/>
      <point x="223" y="385"/>
      <point x="223" y="526" type="curve" smooth="yes"/>
      <point x="223" y="598"/>
      <point x="281" y="654"/>
      <point x="353" y="654" type="curve" smooth="yes"/>
      <point x="402" y="654"/>
      <point x="448" y="625"/>
      <point x="448" y="568" type="curve" smooth="yes"/>
      <point x="448" y="510"/>
      <point x="410" y="443"/>
      <point x="313" y="401" type="curve"/>
      <point x="354" y="362" type="line"/>
      <point x="478" y="422"/>
      <point x="526" y="504"/>
      <point x="526" y="580" type="curve" smooth="yes"/>
      <point x="526" y="669"/>
      <point x="450" y="711"/>
    </contour>
  </outline>
</glyph>
<glyph name="f_f_l" format="2">
  <advance width="787"/>
  <outline>
    <contour>
      <point x="-93" y="-164" type="curve"/>
      <point x="-107" y="-222" type="line"/>
      <point x="13" y="-254"/>
      <point x="103" y="-197"/>
      <point x="122" y="-61" type="curve" smooth="yes"/>
      <point x="189" y="427" type="line"/>
      <point x="401" y="427" type="line"/>
      <point x="409" y="490" type="line"/>
      <point x="197" y="490" type="line"/>
      <point x="209" y="593"/>
      <point x="219" y="707"/>
      <point x="313" y="707" type="curve" smooth="yes"/>
      <point x="337" y="707"/>
      <point x="358" y="694"/>
      <point x="378" y="672" type="curve"/>
      <point x="417" y="731" type="line"/>
      <point x="388" y="752"/>
      <point x="350" y="770"/>
      <point x="307" y="770" type="curve" smooth="yes"/>
      <point x="175" y="770"/>
      <point x="141" y="659"/>
      <point x="120" y="532" type="curve" smooth="yes"/>
      <point x="113" y="488"/>
      <point x="70" y="490"/>
      <point x="46" y="490" type="curve"/>
      <point x="38" y="427" type="line"/>
      <point x="109" y="427" type="line"/>
      <point x="44" y="-52" type="line" smooth="yes"/>
      <point x="33" y="-138"/>
      <point x="-9" y="-182"/>
    </contour>
    <contour>
      <point x="175" y="-164" type="curve"/>
      <point x="161" y="-222" type="line"/>
      <point x="278" y="-255"/>
      <point x="371" y="-198"/>
      <point x="390" y="-62" type="curve" smooth="yes"/>
      <point x="458" y="427" type="line"/>
      <point x="570" y="427" type="line"/>
      <point x="579" y="490" type="line"/>
      <point x="467" y="490" type="line"/>
      <point x="487" y="643"/>
      <point x="523" y="709"/>
      <point x="613" y="709" type="curve" smooth="yes"/>
      <point x="656" y="709"/>
      <point x="686" y="681"/>
      <point x="686" y="646" type="curve" smooth="yes"/>
      <point x="686" y="625"/>
      <point x="627" y="215"/>
      <point x="598" y="0" type="curve"/>
      <point x="688" y="0" type="line"/>
      <point x="688" y="63" type="line"/>
      <point x="782" y="766" type="line"/>
      <point x="713" y="740" type="line"/>
      <point x="704" y="747"/>
      <point x="667" y="772"/>
      <point x="609" y="772" type="curve" smooth="yes"/>
      <point x="463" y="772"/>
      <point x="419" y="659"/>
      <point x="388" y="531" type="curve" smooth="yes"/>
      <point x="377" y="488"/>
      <point x="338" y="490"/>
      <point x="314" y="490" type="curve"/>
      <point x="306" y="427" type="line"/>
      <point x="377" y="427" type="line"/>
      <point x="312" y="-52" type="line" smooth="yes"/>
      <point x="300" y="-142"/>
      <point x="254" y="-184"/>
    </contour>
  </outline>
</glyph>
<glyph name="five.lf" format="2">
  <advance width="435"/>
  <outline>
    <contour>
      <point x="184" y="697" type="line"/>
      <point x="87" y="450" type="line"/>
      <point x="217" y="416"/>
      <point x="265" y="353"/>
      <point x="265" y="269" type="curve" smooth="yes"/>
      <point x="265" y="138"/>
      <point x="186" y="45"/>
      <point x="48" y="45" type="curve" smooth="yes"/>
      <point x="29" y="45"/>
      <point x="8" y="46"/>
      <point x="-13" y="50" type="curve"/>
      <point x="-33" y="0" type="line"/>
      <point x="-4" y="-8"/>
      <point x="24" y="-11"/>
      <point x="52" y="-11" type="curve" smooth="yes"/>
      <point x="218" y="-11"/>
      <point x="361" y="112"/>
      <point x="361" y="275" type="curve" smooth="yes"/>
      <point x="361" y="372"/>
      <point x="306" y="451"/>
      <point x="172" y="492" type="curve"/>
      <point x="219" y="612" type="line"/>
      <point x="441" y="612" type="line"/>
      <point x="477" y="697" type="line"/>
    </contour>
  </outline>
</glyph>
<glyph name="grave.case" format="2">
  <advance width="278"/>
  <anchor x="273" y="724" name="_top"/>
  <outline>
    <contour>
      <point x="245" y="905" type="line"/>
      <point x="123" y="905" type="line"/>
      <point x="245" y="774" type="line"/>
      <point x="323" y="774" type="line"/>
    </contour>
  </outline>
</glyph>
<glyph name="hook" format="2">
  <advance width="280"/>
  <anchor x="153" y="490" name="_top"/>
  <outline>
    <contour>
      <point x="141" y="543" type="line"/>
      <point x="177" y="543" type="line"/>
      <point x="192" y="588" type="line"/>
      <point x="251" y="592"/>
      <point x="299" y="628"/>
      <point x="299" y="683" type="curve" smooth="yes"/>
      <point x="299" y="727"/>
      <point x="259" y="751"/>
      <point x="209" y="751" type="curve" smooth="yes"/>
      <point x="177" y="751"/>
      <point x="141" y="741"/>
      <point x="109" y="721" type="curve"/>
      <point x="125" y="679" type="line"/>
      <point x="144" y="691"/>
      <point x="166" y="697"/>
      <point x="185" y="697" type="curve" smooth="yes"/>
      <point x="206" y="697"/>
      <point x="222" y="688"/>
      <point x="222" y="670" type="curve" smooth="yes"/>
      <point x="222" y="643"/>
      <point x="202" y="626"/>
      <point x="169" y="626" type="curve" smooth="yes"/>
      <point x="160" y="626"/>
      <point x="150" y="627"/>
      <point x="142" y="629" type="curve"/>
    </contour>
  </outline>
</glyph>
<glyph name="horn.case" format="2">
  <advance width="284"/>
  <anchor x="36" y="724" name="_topright"/>
  <outline>
    <contour>
      <point x="103" y="717" type="curve"/>
      <point x="95" y="656" type="line"/>
      <point x="246" y="620"/>
      <point x="332" y="739"/>
      <point x="339" y="839" type="curve"/>
      <point x="240" y="839" type="line"/>
      <point x="238" y="754"/>
      <point x="184" y="687"/>
    </contour>
  </outline>
</glyph>
<glyph name="hungarumlaut.case" format="2">
  <advance width="380"/>
  <anchor x="191" y="724" name="_top"/>
  <outline>
    <contour>
      <point x="194" y="905" type="line"/>
      <point x="95" y="774" type="line"/>
      <point x="157" y="774" type="line"/>
      <point x="312" y="905" type="line"/>
    </contour>
    <contour>
      <point x="336" y="905" type="line"/>
      <point x="237" y="774" type="line"/>
      <point x="298" y="774" type="line"/>
      <point x="453" y="905" type="line"/>
    </contour>
  </outline>
</glyph>
<glyph name="ijacute" format="2">
  <advance width="456"/>
  <outline>
    <contour>
      <point x="128" y="0" type="line"/>
      <point x="128" y="58" type="line"/>
      <point x="186" y="490" type="line"/>
      <point x="98" y="490" type="line"/>
      <point x="98" y="433" type="line"/>
      <point x="40" y="0" type="line"/>
    </contour>
    <contour>
      <point x="416" y="490" type="line"/>
      <point x="329" y="490" type="line"/>
      <point x="329" y="433" type="line"/>
      <point x="271" y="13" type="line" smooth="yes"/>
      <point x="261" y="-59"/>
      <point x="244" y="-150"/>
      <point x="166" y="-188" type="curve"/>
      <point x="174" y="-228" type="line"/>
      <point x="300" y="-211"/>
      <point x="338" y="-77"/>
      <point x="352" y="25" type="curve" smooth="yes"/>
    </contour>
    <contour>
      <point x="231" y="733" type="line"/>
      <point x="113" y="581" type="line"/>
      <point x="191" y="581" type="line"/>
      <point x="353" y="733" type="line"/>
    </contour>
    <contour>
      <point x="459" y="733" type="line"/>
      <point x="341" y="581" type="line"/>
      <point x="419" y="581" type="line"/>
      <point x="581" y="733" type="line"/>
    </contour>
  </outline>
</glyph>
<glyph name="macron.case" format="2">
  <advance width="306"/>
  <anchor x="222" y="724" name="_top"/>
  <outline>
    <contour>
      <point x="89" y="871" type="line"/>
      <point x="81" y="807" type="line"/>
      <point x="385" y="807" type="line"/>
      <point x="393" y="871" type="line"/>
    </contour>
  </outline>
</glyph>
<glyph name="nine.lf" format="2">
  <advance width="562"/>
  <outline>
    <contour>
      <point x="350" y="709" type="curve" smooth="yes"/>
      <point x="207" y="709"/>
      <point x="93" y="589"/>
      <point x="93" y="450" type="curve" smooth="yes"/>
      <point x="93" y="365"/>
      <point x="144" y="291"/>
      <point x="258" y="291" type="curve" smooth="yes"/>
      <point x="309" y="291"/>
      <point x="373" y="310"/>
      <point x="431" y="360" type="curve"/>
      <point x="439" y="414" type="line"/>
      <point x="387" y="377"/>
      <point x="334" y="359"/>
      <point x="290" y="359" type="curve" smooth="yes"/>
      <point x="221" y="359"/>
      <point x="191" y="411"/>
      <point x="191" y="470" type="curve" smooth="yes"/>
      <point x="191" y="551"/>
      <point x="246" y="646"/>
      <point x="334" y="646" type="curve" smooth="yes"/>
      <point x="411" y="646"/>
      <point x="436" y="581"/>
      <point x="436" y="495" type="curve" smooth="yes"/>
      <point x="436" y="270"/>
      <point x="342" y="46"/>
      <point x="149" y="46" type="curve" smooth="yes"/>
      <point x="126" y="46"/>
      <point x="102" y="49"/>
      <point x="76" y="55" type="curve"/>
      <point x="56" y="5" type="line"/>
      <point x="90" y="-4"/>
      <point x="124" y="-9"/>
      <point x="155" y="-9" type="curve" smooth="yes"/>
      <point x="388" y="-9"/>
      <point x="528" y="240"/>
      <point x="528" y="496" type="curve" smooth="yes"/>
      <point x="528" y="616"/>
      <point x="484" y="709"/>
    </contour>
  </outline>
</glyph>
<glyph name="ringacute.case" format="2">
  <advance width="283"/>
  <anchor x="210" y="724" name="_top"/>
  <outline>
    <contour>
      <point x="318" y="1139" type="line"/>
      <point x="226" y="1028" type="line"/>
      <point x="279" y="1028" type="line"/>
      <point x="410" y="1139" type="line"/>
    </contour>
    <contour>
      <point x="244" y="989" type="curve" smooth="yes"/>
      <point x="185" y="989"/>
      <point x="132" y="937"/>
      <point x="132" y="877" type="curve" smooth="yes"/>
      <point x="132" y="829"/>
      <point x="171" y="790"/>
      <point x="220" y="790" type="curve" smooth="yes"/>
      <point x="279" y="790"/>
      <point x="332" y="841"/>
      <point x="332" y="901" type="curve" smooth="yes"/>
      <point x="332" y="950"/>
      <point x="294" y="989"/>
    </contour>
    <contour>
      <point x="237" y="937" type="curve" smooth="yes"/>
      <point x="261" y="937"/>
      <point x="281" y="917"/>
      <point x="281" y="894" type="curve" smooth="yes"/>
      <point x="281" y="865"/>
      <point x="255" y="841"/>
      <point x="227" y="841" type="curve" smooth="yes"/>
      <point x="203" y="841"/>
      <point x="183" y="860"/>
      <point x="183" y="884" type="curve" smooth="yes"/>
      <point x="183" y="914"/>
      <point x="208" y="937"/>
    </contour>
  </outline>
</glyph>
<glyph name="seven.lf" format="2">
  <advance width="475"/>
  <outline>
    <contour>
      <point x="119" y="697" type="line"/>
      <point x="88" y="622" type="line"/>
      <point x="407" y="622" type="line"/>
      <point x="37" y="0" type="line"/>
      <point x="139" y="0" type="line"/>
      <point x="493" y="655" type="line"/>
      <point x="499" y="697" type="line"/>
    </contour>
  </outline>
</glyph>
<glyph name="slashlongcomb.case" format="2">
  <anchor x="378" y="361" name="_center"/>
  <outline>
    <contour>
      <point x="83" y="-57" type="line"/>
      <point x="712" y="736" type="line"/>
      <point x="664" y="773" type="line"/>
      <point x="38" y="-19" type="line"/>
    </contour>
  </outline>
</glyph>
<glyph name="tilde.case" format="2">
  <advance width="357"/>
  <anchor x="249" y="724" name="_top"/>
  <outline>
    <contour>
      <point x="427" y="882" type="curve"/>
      <point x="380" y="882" type="line"/>
      <point x="373" y="867"/>
      <point x="356" y="856"/>
      <point x="340" y="856" type="curve" smooth="yes"/>
      <point x="300" y="856"/>
      <point x="259" y="895"/>
      <point x="206" y="895" type="curve" smooth="yes"/>
      <point x="151" y="895"/>
      <point x="111" y="844"/>
      <point x="98" y="795" type="curve"/>
      <point x="147" y="795" type="line"/>
      <point x="155" y="809"/>
      <point x="168" y="822"/>
      <point x="185" y="822" type="curve" smooth="yes"/>
      <point x="236" y="822"/>
      <point x="271" y="783"/>
      <point x="328" y="783" type="curve" smooth="yes"/>
      <point x="380" y="783"/>
      <point x="416" y="837"/>
    </contour>
  </outline>
</glyph>
<glyph name="tildemacron.case" format="2">
  <advance width="357"/>
  <anchor x="249" y="724" name="_top"/>
  <outline>
    <contour>
      <point x="427" y="882" type="curve"/>
      <point x="380" y="882" type="line"/>
      <point x="373" y="867"/>
      <point x="356" y="856"/>
      <point x="340" y="856" type="curve" smooth="yes"/>
      <point x="300" y="856"/>
      <point x="259" y="895"/>
      <point x="206" y="895" type="curve" smooth="yes"/>
      <point x="151" y="895"/>
      <point x="110" y="844"/>
      <point x="98" y="795" type="curve"/>
      <point x="147" y="795" type="line"/>
      <point x="155" y="809"/>
      <point x="167" y="822"/>
      <point x="184" y="822" type="curve" smooth="yes"/>
      <point x="235" y="822"/>
      <point x="271" y="783"/>
      <point x="328" y="783" type="curve" smooth="yes"/>
      <point x="380" y="783"/>
      <point x="415" y="837"/>
    </contour>
    <contour>
      <point x="134" y="1012" type="line"/>
      <point x="125" y="948" type="line"/>
      <point x="429" y="948" type="line"/>
      <point x="438" y="1012" type="line"/>
    </contour>
  </outline>
</glyph>
<glyph name="two.lf" format="2">
  <advance width="536"/>
  <outline>
    <contour>
      <point x="143" y="68" type="line"/>
      <point x="320" y="184"/>
      <point x="496" y="368"/>
      <point x="496" y="540" type="curve" smooth="yes"/>
      <point x="496" y="648"/>
      <point x="421" y="709"/>
      <point x="326" y="709" type="curve" smooth="yes"/>
      <point x="259" y="709"/>
      <point x="182" y="679"/>
      <point x="114" y="614" type="curve"/>
      <point x="151" y="561" type="line"/>
      <point x="210" y="619"/>
      <point x="266" y="640"/>
      <point x="310" y="640" type="curve" smooth="yes"/>
      <point x="364" y="640"/>
      <point x="402" y="604"/>
      <point x="402" y="530" type="curve" smooth="yes"/>
      <point x="402" y="351"/>
      <point x="227" y="188"/>
      <point x="24" y="57" type="curve"/>
      <point x="16" y="-1" type="line"/>
      <point x="430" y="-1" type="line"/>
      <point x="460" y="68" type="line"/>
    </contour>
  </outline>
</glyph>
<glyph name="zero.tosf.zero" format="2">
  <advance width="600"/>
  <outline>
    <contour>
      <point x="169" y="76" type="line"/>
      <point x="214" y="41" type="line"/>
      <point x="456" y="431" type="line"/>
      <point x="410" y="464" type="line"/>
    </contour>
    <component base="zero" xOffset="33"/>
  </outline>
</glyph>
<glyph name="zero.zero" format="2">
  <advance width="533"/>
  <outline>
    <contour>
      <point x="136" y="76" type="line"/>
      <point x="181" y="41" type="line"/>
      <point x="423" y="431" type="line"/>
      <point x="377" y="464" type="line"/>
    </contour>
    <component base="zero"/>
  </outline>
</glyph>
